<svg xmlns="http://www.w3.org/2000/svg" viewBox="0 0 210 315" width="210" height="315">
  <defs>
    <linearGradient id="g" x1="0" y1="0" x2="0" y2="1">
      <stop offset="0" stop-color="#50bc47"/><stop offset="1" stop-color="#409739"/>
    </linearGradient>
    <filter id="soft" x="-20%" y="-20%" width="140%" height="140%"><feGaussianBlur stdDeviation="0.8"/></filter>
    <clipPath id="cc"><rect x="0" y="0" width="210" height="315" rx="16" ry="16"/></clipPath>
  </defs>
  <rect x="0" y="0" width="210" height="315" rx="16" ry="16" fill="url(#g)"/>
  <g clip-path="url(#cc)"><g transform="translate(4.5,11.8) scale(2.8500)"><g fill="#000000" opacity="0.25" filter="url(#soft)" transform="translate(1.5,1.9)"><path d="M30,28 a20,20 0 1,1 40,0 a20,20 0 1,1 -40,0 Z M12,53 a20,20 0 1,1 40,0 a20,20 0 1,1 -40,0 Z M48,53 a20,20 0 1,1 40,0 a20,20 0 1,1 -40,0 Z M50,51 C54,69 58,82 67,95 L33,95 C42,82 46,69 50,51 Z"/></g><g fill="#ffffff" opacity="0.16" filter="url(#soft)" transform="translate(-1.3,-1.7)"><path d="M30,28 a20,20 0 1,1 40,0 a20,20 0 1,1 -40,0 Z M12,53 a20,20 0 1,1 40,0 a20,20 0 1,1 -40,0 Z M48,53 a20,20 0 1,1 40,0 a20,20 0 1,1 -40,0 Z M50,51 C54,69 58,82 67,95 L33,95 C42,82 46,69 50,51 Z"/></g><g fill="#286020"><path d="M30,28 a20,20 0 1,1 40,0 a20,20 0 1,1 -40,0 Z M12,53 a20,20 0 1,1 40,0 a20,20 0 1,1 -40,0 Z M48,53 a20,20 0 1,1 40,0 a20,20 0 1,1 -40,0 Z M50,51 C54,69 58,82 67,95 L33,95 C42,82 46,69 50,51 Z"/></g></g></g>
  <text x="107" y="229" font-family="'Arial Black','Helvetica Neue',Arial,sans-serif" font-size="192" font-weight="900" fill="#000000" opacity="0.28" text-anchor="middle">4</text>
  <text x="105" y="226" font-family="'Arial Black','Helvetica Neue',Arial,sans-serif" font-size="192" font-weight="900" fill="#ffffff" text-anchor="middle">4</text>
</svg>
