<svg xmlns="http://www.w3.org/2000/svg" viewBox="0 0 210 315" width="210" height="315">
  <defs>
    <linearGradient id="g" x1="0" y1="0" x2="0" y2="1">
      <stop offset="0" stop-color="#aa2311"/><stop offset="1" stop-color="#881c0e"/>
    </linearGradient>
    <filter id="soft" x="-20%" y="-20%" width="140%" height="140%"><feGaussianBlur stdDeviation="0.8"/></filter>
    <clipPath id="cc"><rect x="0" y="0" width="210" height="315" rx="16" ry="16"/></clipPath>
  </defs>
  <rect x="0" y="0" width="210" height="315" rx="16" ry="16" fill="url(#g)"/>
  <g clip-path="url(#cc)"><g transform="translate(4.5,11.8) scale(2.8500)"><g fill="#000000" opacity="0.25" filter="url(#soft)" transform="translate(1.5,1.9)"><path d="M50 90 C 50 90 11 60 11 32 C 11 16 22 7 34 7 C 43 7 49 14 50 24 C 51 14 57 7 66 7 C 78 7 89 16 89 32 C 89 60 50 90 50 90 Z"/></g><g fill="#ffffff" opacity="0.16" filter="url(#soft)" transform="translate(-1.3,-1.7)"><path d="M50 90 C 50 90 11 60 11 32 C 11 16 22 7 34 7 C 43 7 49 14 50 24 C 51 14 57 7 66 7 C 78 7 89 16 89 32 C 89 60 50 90 50 90 Z"/></g><g fill="#581008"><path d="M50 90 C 50 90 11 60 11 32 C 11 16 22 7 34 7 C 43 7 49 14 50 24 C 51 14 57 7 66 7 C 78 7 89 16 89 32 C 89 60 50 90 50 90 Z"/></g></g></g>
  <text x="107" y="229" font-family="'Arial Black','Helvetica Neue',Arial,sans-serif" font-size="192" font-weight="900" fill="#000000" opacity="0.28" text-anchor="middle">6</text>
  <text x="105" y="226" font-family="'Arial Black','Helvetica Neue',Arial,sans-serif" font-size="192" font-weight="900" fill="#ffffff" text-anchor="middle">6</text>
</svg>
