<svg xmlns="http://www.w3.org/2000/svg" viewBox="0 0 210 315" width="210" height="315">
  <defs>
    <linearGradient id="g" x1="0" y1="0" x2="0" y2="1">
      <stop offset="0" stop-color="#595050"/><stop offset="1" stop-color="#484040"/>
    </linearGradient>
    <filter id="soft" x="-20%" y="-20%" width="140%" height="140%"><feGaussianBlur stdDeviation="0.8"/></filter>
    <clipPath id="cc"><rect x="0" y="0" width="210" height="315" rx="16" ry="16"/></clipPath>
  </defs>
  <rect x="0" y="0" width="210" height="315" rx="16" ry="16" fill="url(#g)"/>
  <g clip-path="url(#cc)"><g transform="translate(4.5,11.8) scale(2.8500)"><g fill="#000000" opacity="0.25" filter="url(#soft)" transform="translate(1.5,1.9)"><path d="M50 6 C 44 15 14 39 14 61 C 14 74 28 83 43 70 C 42 82 40 89 34 95 L 66 95 C 60 89 58 82 57 70 C 72 83 86 74 86 61 C 86 39 56 15 50 6 Z"/></g><g fill="#ffffff" opacity="0.16" filter="url(#soft)" transform="translate(-1.3,-1.7)"><path d="M50 6 C 44 15 14 39 14 61 C 14 74 28 83 43 70 C 42 82 40 89 34 95 L 66 95 C 60 89 58 82 57 70 C 72 83 86 74 86 61 C 86 39 56 15 50 6 Z"/></g><g fill="#302828"><path d="M50 6 C 44 15 14 39 14 61 C 14 74 28 83 43 70 C 42 82 40 89 34 95 L 66 95 C 60 89 58 82 57 70 C 72 83 86 74 86 61 C 86 39 56 15 50 6 Z"/></g></g></g>
  <text x="107" y="229" font-family="'Arial Black','Helvetica Neue',Arial,sans-serif" font-size="192" font-weight="900" fill="#000000" opacity="0.28" text-anchor="middle">5</text>
  <text x="105" y="226" font-family="'Arial Black','Helvetica Neue',Arial,sans-serif" font-size="192" font-weight="900" fill="#ffffff" text-anchor="middle">5</text>
</svg>
