<svg xmlns="http://www.w3.org/2000/svg" viewBox="0 0 1300 562" width="1300" height="562"><defs><filter id="soft" x="-20%" y="-20%" width="140%" height="140%"><feGaussianBlur stdDeviation="0.9"/></filter><linearGradient id="grad_spade" x1="0" y1="0" x2="0" y2="1"><stop offset="0" stop-color="#4a4a4a"/><stop offset="1" stop-color="#373737"/></linearGradient><linearGradient id="grad_heart" x1="0" y1="0" x2="0" y2="1"><stop offset="0" stop-color="#cc2b2b"/><stop offset="1" stop-color="#b11d1d"/></linearGradient><linearGradient id="grad_diamond" x1="0" y1="0" x2="0" y2="1"><stop offset="0" stop-color="#2b56e2"/><stop offset="1" stop-color="#193ec1"/></linearGradient><linearGradient id="grad_club" x1="0" y1="0" x2="0" y2="1"><stop offset="0" stop-color="#27b341"/><stop offset="1" stop-color="#179931"/></linearGradient></defs><rect x="0" y="0" width="1300" height="562" fill="#161616"/><g><rect x="18" y="18" width="88" height="124" rx="12" fill="url(#grad_spade)"/><rect x="21" y="21" width="82" height="52" rx="9" fill="#ffffff" opacity="0.05"/><g transform="translate(26.48,39.48) scale(0.8600)"><g fill="#000000" opacity="0.30" filter="url(#soft)" transform="translate(2.4,3.0)"><path d="M50,70 C50,70 47,90 30,90 C8,90 8,62 8,62 C8,42 28,28 50,10 C72,28 92,42 92,62 C92,62 92,90 70,90 C53,90 50,70 50,70 Z"/><path d="M50,63 C50,78 45,86 35,92 L65,92 C55,86 50,78 50,63 Z"/></g><g fill="#ffffff" opacity="0.13" filter="url(#soft)" transform="translate(-2.0,-2.6)"><path d="M50,70 C50,70 47,90 30,90 C8,90 8,62 8,62 C8,42 28,28 50,10 C72,28 92,42 92,62 C92,62 92,90 70,90 C53,90 50,70 50,70 Z"/><path d="M50,63 C50,78 45,86 35,92 L65,92 C55,86 50,78 50,63 Z"/></g><g fill="#2b2b2b"><path d="M50,70 C50,70 47,90 30,90 C8,90 8,62 8,62 C8,42 28,28 50,10 C72,28 92,42 92,62 C92,62 92,90 70,90 C53,90 50,70 50,70 Z"/><path d="M50,63 C50,78 45,86 35,92 L65,92 C55,86 50,78 50,63 Z"/></g></g><g transform="translate(23.14,26.24) scale(0.1700)"><g fill="#ffffff" opacity="0.85"><path d="M50,70 C50,70 47,90 30,90 C8,90 8,62 8,62 C8,42 28,28 50,10 C72,28 92,42 92,62 C92,62 92,90 70,90 C53,90 50,70 50,70 Z"/><path d="M50,63 C50,78 45,86 35,92 L65,92 C55,86 50,78 50,63 Z"/></g></g><text x="60.0" y="110.0" text-anchor="middle" font-family="Arial Black, Arial, Helvetica, sans-serif" font-weight="800" font-size="69.4" fill="#000000" opacity="0.30">A</text><text x="58.5" y="108.0" text-anchor="middle" font-family="Arial Black, Arial, Helvetica, sans-serif" font-weight="800" font-size="69.4" fill="#ffffff">A</text></g><g><rect x="116" y="18" width="88" height="124" rx="12" fill="url(#grad_spade)"/><rect x="119" y="21" width="82" height="52" rx="9" fill="#ffffff" opacity="0.05"/><g transform="translate(124.48,39.48) scale(0.8600)"><g fill="#000000" opacity="0.30" filter="url(#soft)" transform="translate(2.4,3.0)"><path d="M50,70 C50,70 47,90 30,90 C8,90 8,62 8,62 C8,42 28,28 50,10 C72,28 92,42 92,62 C92,62 92,90 70,90 C53,90 50,70 50,70 Z"/><path d="M50,63 C50,78 45,86 35,92 L65,92 C55,86 50,78 50,63 Z"/></g><g fill="#ffffff" opacity="0.13" filter="url(#soft)" transform="translate(-2.0,-2.6)"><path d="M50,70 C50,70 47,90 30,90 C8,90 8,62 8,62 C8,42 28,28 50,10 C72,28 92,42 92,62 C92,62 92,90 70,90 C53,90 50,70 50,70 Z"/><path d="M50,63 C50,78 45,86 35,92 L65,92 C55,86 50,78 50,63 Z"/></g><g fill="#2b2b2b"><path d="M50,70 C50,70 47,90 30,90 C8,90 8,62 8,62 C8,42 28,28 50,10 C72,28 92,42 92,62 C92,62 92,90 70,90 C53,90 50,70 50,70 Z"/><path d="M50,63 C50,78 45,86 35,92 L65,92 C55,86 50,78 50,63 Z"/></g></g><g transform="translate(121.14,26.24) scale(0.1700)"><g fill="#ffffff" opacity="0.85"><path d="M50,70 C50,70 47,90 30,90 C8,90 8,62 8,62 C8,42 28,28 50,10 C72,28 92,42 92,62 C92,62 92,90 70,90 C53,90 50,70 50,70 Z"/><path d="M50,63 C50,78 45,86 35,92 L65,92 C55,86 50,78 50,63 Z"/></g></g><text x="158.0" y="110.0" text-anchor="middle" font-family="Arial Black, Arial, Helvetica, sans-serif" font-weight="800" font-size="69.4" fill="#000000" opacity="0.30">K</text><text x="156.5" y="108.0" text-anchor="middle" font-family="Arial Black, Arial, Helvetica, sans-serif" font-weight="800" font-size="69.4" fill="#ffffff">K</text></g><g><rect x="214" y="18" width="88" height="124" rx="12" fill="url(#grad_spade)"/><rect x="217" y="21" width="82" height="52" rx="9" fill="#ffffff" opacity="0.05"/><g transform="translate(222.48,39.48) scale(0.8600)"><g fill="#000000" opacity="0.30" filter="url(#soft)" transform="translate(2.4,3.0)"><path d="M50,70 C50,70 47,90 30,90 C8,90 8,62 8,62 C8,42 28,28 50,10 C72,28 92,42 92,62 C92,62 92,90 70,90 C53,90 50,70 50,70 Z"/><path d="M50,63 C50,78 45,86 35,92 L65,92 C55,86 50,78 50,63 Z"/></g><g fill="#ffffff" opacity="0.13" filter="url(#soft)" transform="translate(-2.0,-2.6)"><path d="M50,70 C50,70 47,90 30,90 C8,90 8,62 8,62 C8,42 28,28 50,10 C72,28 92,42 92,62 C92,62 92,90 70,90 C53,90 50,70 50,70 Z"/><path d="M50,63 C50,78 45,86 35,92 L65,92 C55,86 50,78 50,63 Z"/></g><g fill="#2b2b2b"><path d="M50,70 C50,70 47,90 30,90 C8,90 8,62 8,62 C8,42 28,28 50,10 C72,28 92,42 92,62 C92,62 92,90 70,90 C53,90 50,70 50,70 Z"/><path d="M50,63 C50,78 45,86 35,92 L65,92 C55,86 50,78 50,63 Z"/></g></g><g transform="translate(219.14,26.24) scale(0.1700)"><g fill="#ffffff" opacity="0.85"><path d="M50,70 C50,70 47,90 30,90 C8,90 8,62 8,62 C8,42 28,28 50,10 C72,28 92,42 92,62 C92,62 92,90 70,90 C53,90 50,70 50,70 Z"/><path d="M50,63 C50,78 45,86 35,92 L65,92 C55,86 50,78 50,63 Z"/></g></g><text x="256.0" y="110.0" text-anchor="middle" font-family="Arial Black, Arial, Helvetica, sans-serif" font-weight="800" font-size="69.4" fill="#000000" opacity="0.30">Q</text><text x="254.5" y="108.0" text-anchor="middle" font-family="Arial Black, Arial, Helvetica, sans-serif" font-weight="800" font-size="69.4" fill="#ffffff">Q</text></g><g><rect x="312" y="18" width="88" height="124" rx="12" fill="url(#grad_spade)"/><rect x="315" y="21" width="82" height="52" rx="9" fill="#ffffff" opacity="0.05"/><g transform="translate(320.48,39.48) scale(0.8600)"><g fill="#000000" opacity="0.30" filter="url(#soft)" transform="translate(2.4,3.0)"><path d="M50,70 C50,70 47,90 30,90 C8,90 8,62 8,62 C8,42 28,28 50,10 C72,28 92,42 92,62 C92,62 92,90 70,90 C53,90 50,70 50,70 Z"/><path d="M50,63 C50,78 45,86 35,92 L65,92 C55,86 50,78 50,63 Z"/></g><g fill="#ffffff" opacity="0.13" filter="url(#soft)" transform="translate(-2.0,-2.6)"><path d="M50,70 C50,70 47,90 30,90 C8,90 8,62 8,62 C8,42 28,28 50,10 C72,28 92,42 92,62 C92,62 92,90 70,90 C53,90 50,70 50,70 Z"/><path d="M50,63 C50,78 45,86 35,92 L65,92 C55,86 50,78 50,63 Z"/></g><g fill="#2b2b2b"><path d="M50,70 C50,70 47,90 30,90 C8,90 8,62 8,62 C8,42 28,28 50,10 C72,28 92,42 92,62 C92,62 92,90 70,90 C53,90 50,70 50,70 Z"/><path d="M50,63 C50,78 45,86 35,92 L65,92 C55,86 50,78 50,63 Z"/></g></g><g transform="translate(317.14,26.24) scale(0.1700)"><g fill="#ffffff" opacity="0.85"><path d="M50,70 C50,70 47,90 30,90 C8,90 8,62 8,62 C8,42 28,28 50,10 C72,28 92,42 92,62 C92,62 92,90 70,90 C53,90 50,70 50,70 Z"/><path d="M50,63 C50,78 45,86 35,92 L65,92 C55,86 50,78 50,63 Z"/></g></g><text x="354.0" y="110.0" text-anchor="middle" font-family="Arial Black, Arial, Helvetica, sans-serif" font-weight="800" font-size="69.4" fill="#000000" opacity="0.30">J</text><text x="352.5" y="108.0" text-anchor="middle" font-family="Arial Black, Arial, Helvetica, sans-serif" font-weight="800" font-size="69.4" fill="#ffffff">J</text></g><g><rect x="410" y="18" width="88" height="124" rx="12" fill="url(#grad_spade)"/><rect x="413" y="21" width="82" height="52" rx="9" fill="#ffffff" opacity="0.05"/><g transform="translate(418.48,39.48) scale(0.8600)"><g fill="#000000" opacity="0.30" filter="url(#soft)" transform="translate(2.4,3.0)"><path d="M50,70 C50,70 47,90 30,90 C8,90 8,62 8,62 C8,42 28,28 50,10 C72,28 92,42 92,62 C92,62 92,90 70,90 C53,90 50,70 50,70 Z"/><path d="M50,63 C50,78 45,86 35,92 L65,92 C55,86 50,78 50,63 Z"/></g><g fill="#ffffff" opacity="0.13" filter="url(#soft)" transform="translate(-2.0,-2.6)"><path d="M50,70 C50,70 47,90 30,90 C8,90 8,62 8,62 C8,42 28,28 50,10 C72,28 92,42 92,62 C92,62 92,90 70,90 C53,90 50,70 50,70 Z"/><path d="M50,63 C50,78 45,86 35,92 L65,92 C55,86 50,78 50,63 Z"/></g><g fill="#2b2b2b"><path d="M50,70 C50,70 47,90 30,90 C8,90 8,62 8,62 C8,42 28,28 50,10 C72,28 92,42 92,62 C92,62 92,90 70,90 C53,90 50,70 50,70 Z"/><path d="M50,63 C50,78 45,86 35,92 L65,92 C55,86 50,78 50,63 Z"/></g></g><g transform="translate(415.14,26.24) scale(0.1700)"><g fill="#ffffff" opacity="0.85"><path d="M50,70 C50,70 47,90 30,90 C8,90 8,62 8,62 C8,42 28,28 50,10 C72,28 92,42 92,62 C92,62 92,90 70,90 C53,90 50,70 50,70 Z"/><path d="M50,63 C50,78 45,86 35,92 L65,92 C55,86 50,78 50,63 Z"/></g></g><text x="452.0" y="110.0" text-anchor="middle" font-family="Arial Black, Arial, Helvetica, sans-serif" font-weight="800" font-size="69.4" fill="#000000" opacity="0.30">T</text><text x="450.5" y="108.0" text-anchor="middle" font-family="Arial Black, Arial, Helvetica, sans-serif" font-weight="800" font-size="69.4" fill="#ffffff">T</text></g><g><rect x="508" y="18" width="88" height="124" rx="12" fill="url(#grad_spade)"/><rect x="511" y="21" width="82" height="52" rx="9" fill="#ffffff" opacity="0.05"/><g transform="translate(516.48,39.48) scale(0.8600)"><g fill="#000000" opacity="0.30" filter="url(#soft)" transform="translate(2.4,3.0)"><path d="M50,70 C50,70 47,90 30,90 C8,90 8,62 8,62 C8,42 28,28 50,10 C72,28 92,42 92,62 C92,62 92,90 70,90 C53,90 50,70 50,70 Z"/><path d="M50,63 C50,78 45,86 35,92 L65,92 C55,86 50,78 50,63 Z"/></g><g fill="#ffffff" opacity="0.13" filter="url(#soft)" transform="translate(-2.0,-2.6)"><path d="M50,70 C50,70 47,90 30,90 C8,90 8,62 8,62 C8,42 28,28 50,10 C72,28 92,42 92,62 C92,62 92,90 70,90 C53,90 50,70 50,70 Z"/><path d="M50,63 C50,78 45,86 35,92 L65,92 C55,86 50,78 50,63 Z"/></g><g fill="#2b2b2b"><path d="M50,70 C50,70 47,90 30,90 C8,90 8,62 8,62 C8,42 28,28 50,10 C72,28 92,42 92,62 C92,62 92,90 70,90 C53,90 50,70 50,70 Z"/><path d="M50,63 C50,78 45,86 35,92 L65,92 C55,86 50,78 50,63 Z"/></g></g><g transform="translate(513.14,26.24) scale(0.1700)"><g fill="#ffffff" opacity="0.85"><path d="M50,70 C50,70 47,90 30,90 C8,90 8,62 8,62 C8,42 28,28 50,10 C72,28 92,42 92,62 C92,62 92,90 70,90 C53,90 50,70 50,70 Z"/><path d="M50,63 C50,78 45,86 35,92 L65,92 C55,86 50,78 50,63 Z"/></g></g><text x="550.0" y="110.0" text-anchor="middle" font-family="Arial Black, Arial, Helvetica, sans-serif" font-weight="800" font-size="69.4" fill="#000000" opacity="0.30">9</text><text x="548.5" y="108.0" text-anchor="middle" font-family="Arial Black, Arial, Helvetica, sans-serif" font-weight="800" font-size="69.4" fill="#ffffff">9</text></g><g><rect x="606" y="18" width="88" height="124" rx="12" fill="url(#grad_spade)"/><rect x="609" y="21" width="82" height="52" rx="9" fill="#ffffff" opacity="0.05"/><g transform="translate(614.48,39.48) scale(0.8600)"><g fill="#000000" opacity="0.30" filter="url(#soft)" transform="translate(2.4,3.0)"><path d="M50,70 C50,70 47,90 30,90 C8,90 8,62 8,62 C8,42 28,28 50,10 C72,28 92,42 92,62 C92,62 92,90 70,90 C53,90 50,70 50,70 Z"/><path d="M50,63 C50,78 45,86 35,92 L65,92 C55,86 50,78 50,63 Z"/></g><g fill="#ffffff" opacity="0.13" filter="url(#soft)" transform="translate(-2.0,-2.6)"><path d="M50,70 C50,70 47,90 30,90 C8,90 8,62 8,62 C8,42 28,28 50,10 C72,28 92,42 92,62 C92,62 92,90 70,90 C53,90 50,70 50,70 Z"/><path d="M50,63 C50,78 45,86 35,92 L65,92 C55,86 50,78 50,63 Z"/></g><g fill="#2b2b2b"><path d="M50,70 C50,70 47,90 30,90 C8,90 8,62 8,62 C8,42 28,28 50,10 C72,28 92,42 92,62 C92,62 92,90 70,90 C53,90 50,70 50,70 Z"/><path d="M50,63 C50,78 45,86 35,92 L65,92 C55,86 50,78 50,63 Z"/></g></g><g transform="translate(611.14,26.24) scale(0.1700)"><g fill="#ffffff" opacity="0.85"><path d="M50,70 C50,70 47,90 30,90 C8,90 8,62 8,62 C8,42 28,28 50,10 C72,28 92,42 92,62 C92,62 92,90 70,90 C53,90 50,70 50,70 Z"/><path d="M50,63 C50,78 45,86 35,92 L65,92 C55,86 50,78 50,63 Z"/></g></g><text x="648.0" y="110.0" text-anchor="middle" font-family="Arial Black, Arial, Helvetica, sans-serif" font-weight="800" font-size="69.4" fill="#000000" opacity="0.30">8</text><text x="646.5" y="108.0" text-anchor="middle" font-family="Arial Black, Arial, Helvetica, sans-serif" font-weight="800" font-size="69.4" fill="#ffffff">8</text></g><g><rect x="704" y="18" width="88" height="124" rx="12" fill="url(#grad_spade)"/><rect x="707" y="21" width="82" height="52" rx="9" fill="#ffffff" opacity="0.05"/><g transform="translate(712.48,39.48) scale(0.8600)"><g fill="#000000" opacity="0.30" filter="url(#soft)" transform="translate(2.4,3.0)"><path d="M50,70 C50,70 47,90 30,90 C8,90 8,62 8,62 C8,42 28,28 50,10 C72,28 92,42 92,62 C92,62 92,90 70,90 C53,90 50,70 50,70 Z"/><path d="M50,63 C50,78 45,86 35,92 L65,92 C55,86 50,78 50,63 Z"/></g><g fill="#ffffff" opacity="0.13" filter="url(#soft)" transform="translate(-2.0,-2.6)"><path d="M50,70 C50,70 47,90 30,90 C8,90 8,62 8,62 C8,42 28,28 50,10 C72,28 92,42 92,62 C92,62 92,90 70,90 C53,90 50,70 50,70 Z"/><path d="M50,63 C50,78 45,86 35,92 L65,92 C55,86 50,78 50,63 Z"/></g><g fill="#2b2b2b"><path d="M50,70 C50,70 47,90 30,90 C8,90 8,62 8,62 C8,42 28,28 50,10 C72,28 92,42 92,62 C92,62 92,90 70,90 C53,90 50,70 50,70 Z"/><path d="M50,63 C50,78 45,86 35,92 L65,92 C55,86 50,78 50,63 Z"/></g></g><g transform="translate(709.14,26.24) scale(0.1700)"><g fill="#ffffff" opacity="0.85"><path d="M50,70 C50,70 47,90 30,90 C8,90 8,62 8,62 C8,42 28,28 50,10 C72,28 92,42 92,62 C92,62 92,90 70,90 C53,90 50,70 50,70 Z"/><path d="M50,63 C50,78 45,86 35,92 L65,92 C55,86 50,78 50,63 Z"/></g></g><text x="746.0" y="110.0" text-anchor="middle" font-family="Arial Black, Arial, Helvetica, sans-serif" font-weight="800" font-size="69.4" fill="#000000" opacity="0.30">7</text><text x="744.5" y="108.0" text-anchor="middle" font-family="Arial Black, Arial, Helvetica, sans-serif" font-weight="800" font-size="69.4" fill="#ffffff">7</text></g><g><rect x="802" y="18" width="88" height="124" rx="12" fill="url(#grad_spade)"/><rect x="805" y="21" width="82" height="52" rx="9" fill="#ffffff" opacity="0.05"/><g transform="translate(810.48,39.48) scale(0.8600)"><g fill="#000000" opacity="0.30" filter="url(#soft)" transform="translate(2.4,3.0)"><path d="M50,70 C50,70 47,90 30,90 C8,90 8,62 8,62 C8,42 28,28 50,10 C72,28 92,42 92,62 C92,62 92,90 70,90 C53,90 50,70 50,70 Z"/><path d="M50,63 C50,78 45,86 35,92 L65,92 C55,86 50,78 50,63 Z"/></g><g fill="#ffffff" opacity="0.13" filter="url(#soft)" transform="translate(-2.0,-2.6)"><path d="M50,70 C50,70 47,90 30,90 C8,90 8,62 8,62 C8,42 28,28 50,10 C72,28 92,42 92,62 C92,62 92,90 70,90 C53,90 50,70 50,70 Z"/><path d="M50,63 C50,78 45,86 35,92 L65,92 C55,86 50,78 50,63 Z"/></g><g fill="#2b2b2b"><path d="M50,70 C50,70 47,90 30,90 C8,90 8,62 8,62 C8,42 28,28 50,10 C72,28 92,42 92,62 C92,62 92,90 70,90 C53,90 50,70 50,70 Z"/><path d="M50,63 C50,78 45,86 35,92 L65,92 C55,86 50,78 50,63 Z"/></g></g><g transform="translate(807.14,26.24) scale(0.1700)"><g fill="#ffffff" opacity="0.85"><path d="M50,70 C50,70 47,90 30,90 C8,90 8,62 8,62 C8,42 28,28 50,10 C72,28 92,42 92,62 C92,62 92,90 70,90 C53,90 50,70 50,70 Z"/><path d="M50,63 C50,78 45,86 35,92 L65,92 C55,86 50,78 50,63 Z"/></g></g><text x="844.0" y="110.0" text-anchor="middle" font-family="Arial Black, Arial, Helvetica, sans-serif" font-weight="800" font-size="69.4" fill="#000000" opacity="0.30">6</text><text x="842.5" y="108.0" text-anchor="middle" font-family="Arial Black, Arial, Helvetica, sans-serif" font-weight="800" font-size="69.4" fill="#ffffff">6</text></g><g><rect x="900" y="18" width="88" height="124" rx="12" fill="url(#grad_spade)"/><rect x="903" y="21" width="82" height="52" rx="9" fill="#ffffff" opacity="0.05"/><g transform="translate(908.48,39.48) scale(0.8600)"><g fill="#000000" opacity="0.30" filter="url(#soft)" transform="translate(2.4,3.0)"><path d="M50,70 C50,70 47,90 30,90 C8,90 8,62 8,62 C8,42 28,28 50,10 C72,28 92,42 92,62 C92,62 92,90 70,90 C53,90 50,70 50,70 Z"/><path d="M50,63 C50,78 45,86 35,92 L65,92 C55,86 50,78 50,63 Z"/></g><g fill="#ffffff" opacity="0.13" filter="url(#soft)" transform="translate(-2.0,-2.6)"><path d="M50,70 C50,70 47,90 30,90 C8,90 8,62 8,62 C8,42 28,28 50,10 C72,28 92,42 92,62 C92,62 92,90 70,90 C53,90 50,70 50,70 Z"/><path d="M50,63 C50,78 45,86 35,92 L65,92 C55,86 50,78 50,63 Z"/></g><g fill="#2b2b2b"><path d="M50,70 C50,70 47,90 30,90 C8,90 8,62 8,62 C8,42 28,28 50,10 C72,28 92,42 92,62 C92,62 92,90 70,90 C53,90 50,70 50,70 Z"/><path d="M50,63 C50,78 45,86 35,92 L65,92 C55,86 50,78 50,63 Z"/></g></g><g transform="translate(905.14,26.24) scale(0.1700)"><g fill="#ffffff" opacity="0.85"><path d="M50,70 C50,70 47,90 30,90 C8,90 8,62 8,62 C8,42 28,28 50,10 C72,28 92,42 92,62 C92,62 92,90 70,90 C53,90 50,70 50,70 Z"/><path d="M50,63 C50,78 45,86 35,92 L65,92 C55,86 50,78 50,63 Z"/></g></g><text x="942.0" y="110.0" text-anchor="middle" font-family="Arial Black, Arial, Helvetica, sans-serif" font-weight="800" font-size="69.4" fill="#000000" opacity="0.30">5</text><text x="940.5" y="108.0" text-anchor="middle" font-family="Arial Black, Arial, Helvetica, sans-serif" font-weight="800" font-size="69.4" fill="#ffffff">5</text></g><g><rect x="998" y="18" width="88" height="124" rx="12" fill="url(#grad_spade)"/><rect x="1001" y="21" width="82" height="52" rx="9" fill="#ffffff" opacity="0.05"/><g transform="translate(1006.48,39.48) scale(0.8600)"><g fill="#000000" opacity="0.30" filter="url(#soft)" transform="translate(2.4,3.0)"><path d="M50,70 C50,70 47,90 30,90 C8,90 8,62 8,62 C8,42 28,28 50,10 C72,28 92,42 92,62 C92,62 92,90 70,90 C53,90 50,70 50,70 Z"/><path d="M50,63 C50,78 45,86 35,92 L65,92 C55,86 50,78 50,63 Z"/></g><g fill="#ffffff" opacity="0.13" filter="url(#soft)" transform="translate(-2.0,-2.6)"><path d="M50,70 C50,70 47,90 30,90 C8,90 8,62 8,62 C8,42 28,28 50,10 C72,28 92,42 92,62 C92,62 92,90 70,90 C53,90 50,70 50,70 Z"/><path d="M50,63 C50,78 45,86 35,92 L65,92 C55,86 50,78 50,63 Z"/></g><g fill="#2b2b2b"><path d="M50,70 C50,70 47,90 30,90 C8,90 8,62 8,62 C8,42 28,28 50,10 C72,28 92,42 92,62 C92,62 92,90 70,90 C53,90 50,70 50,70 Z"/><path d="M50,63 C50,78 45,86 35,92 L65,92 C55,86 50,78 50,63 Z"/></g></g><g transform="translate(1003.14,26.24) scale(0.1700)"><g fill="#ffffff" opacity="0.85"><path d="M50,70 C50,70 47,90 30,90 C8,90 8,62 8,62 C8,42 28,28 50,10 C72,28 92,42 92,62 C92,62 92,90 70,90 C53,90 50,70 50,70 Z"/><path d="M50,63 C50,78 45,86 35,92 L65,92 C55,86 50,78 50,63 Z"/></g></g><text x="1040.0" y="110.0" text-anchor="middle" font-family="Arial Black, Arial, Helvetica, sans-serif" font-weight="800" font-size="69.4" fill="#000000" opacity="0.30">4</text><text x="1038.5" y="108.0" text-anchor="middle" font-family="Arial Black, Arial, Helvetica, sans-serif" font-weight="800" font-size="69.4" fill="#ffffff">4</text></g><g><rect x="1096" y="18" width="88" height="124" rx="12" fill="url(#grad_spade)"/><rect x="1099" y="21" width="82" height="52" rx="9" fill="#ffffff" opacity="0.05"/><g transform="translate(1104.48,39.48) scale(0.8600)"><g fill="#000000" opacity="0.30" filter="url(#soft)" transform="translate(2.4,3.0)"><path d="M50,70 C50,70 47,90 30,90 C8,90 8,62 8,62 C8,42 28,28 50,10 C72,28 92,42 92,62 C92,62 92,90 70,90 C53,90 50,70 50,70 Z"/><path d="M50,63 C50,78 45,86 35,92 L65,92 C55,86 50,78 50,63 Z"/></g><g fill="#ffffff" opacity="0.13" filter="url(#soft)" transform="translate(-2.0,-2.6)"><path d="M50,70 C50,70 47,90 30,90 C8,90 8,62 8,62 C8,42 28,28 50,10 C72,28 92,42 92,62 C92,62 92,90 70,90 C53,90 50,70 50,70 Z"/><path d="M50,63 C50,78 45,86 35,92 L65,92 C55,86 50,78 50,63 Z"/></g><g fill="#2b2b2b"><path d="M50,70 C50,70 47,90 30,90 C8,90 8,62 8,62 C8,42 28,28 50,10 C72,28 92,42 92,62 C92,62 92,90 70,90 C53,90 50,70 50,70 Z"/><path d="M50,63 C50,78 45,86 35,92 L65,92 C55,86 50,78 50,63 Z"/></g></g><g transform="translate(1101.14,26.24) scale(0.1700)"><g fill="#ffffff" opacity="0.85"><path d="M50,70 C50,70 47,90 30,90 C8,90 8,62 8,62 C8,42 28,28 50,10 C72,28 92,42 92,62 C92,62 92,90 70,90 C53,90 50,70 50,70 Z"/><path d="M50,63 C50,78 45,86 35,92 L65,92 C55,86 50,78 50,63 Z"/></g></g><text x="1138.0" y="110.0" text-anchor="middle" font-family="Arial Black, Arial, Helvetica, sans-serif" font-weight="800" font-size="69.4" fill="#000000" opacity="0.30">3</text><text x="1136.5" y="108.0" text-anchor="middle" font-family="Arial Black, Arial, Helvetica, sans-serif" font-weight="800" font-size="69.4" fill="#ffffff">3</text></g><g><rect x="1194" y="18" width="88" height="124" rx="12" fill="url(#grad_spade)"/><rect x="1197" y="21" width="82" height="52" rx="9" fill="#ffffff" opacity="0.05"/><g transform="translate(1202.48,39.48) scale(0.8600)"><g fill="#000000" opacity="0.30" filter="url(#soft)" transform="translate(2.4,3.0)"><path d="M50,70 C50,70 47,90 30,90 C8,90 8,62 8,62 C8,42 28,28 50,10 C72,28 92,42 92,62 C92,62 92,90 70,90 C53,90 50,70 50,70 Z"/><path d="M50,63 C50,78 45,86 35,92 L65,92 C55,86 50,78 50,63 Z"/></g><g fill="#ffffff" opacity="0.13" filter="url(#soft)" transform="translate(-2.0,-2.6)"><path d="M50,70 C50,70 47,90 30,90 C8,90 8,62 8,62 C8,42 28,28 50,10 C72,28 92,42 92,62 C92,62 92,90 70,90 C53,90 50,70 50,70 Z"/><path d="M50,63 C50,78 45,86 35,92 L65,92 C55,86 50,78 50,63 Z"/></g><g fill="#2b2b2b"><path d="M50,70 C50,70 47,90 30,90 C8,90 8,62 8,62 C8,42 28,28 50,10 C72,28 92,42 92,62 C92,62 92,90 70,90 C53,90 50,70 50,70 Z"/><path d="M50,63 C50,78 45,86 35,92 L65,92 C55,86 50,78 50,63 Z"/></g></g><g transform="translate(1199.14,26.24) scale(0.1700)"><g fill="#ffffff" opacity="0.85"><path d="M50,70 C50,70 47,90 30,90 C8,90 8,62 8,62 C8,42 28,28 50,10 C72,28 92,42 92,62 C92,62 92,90 70,90 C53,90 50,70 50,70 Z"/><path d="M50,63 C50,78 45,86 35,92 L65,92 C55,86 50,78 50,63 Z"/></g></g><text x="1236.0" y="110.0" text-anchor="middle" font-family="Arial Black, Arial, Helvetica, sans-serif" font-weight="800" font-size="69.4" fill="#000000" opacity="0.30">2</text><text x="1234.5" y="108.0" text-anchor="middle" font-family="Arial Black, Arial, Helvetica, sans-serif" font-weight="800" font-size="69.4" fill="#ffffff">2</text></g><g><rect x="18" y="152" width="88" height="124" rx="12" fill="url(#grad_heart)"/><rect x="21" y="155" width="82" height="52" rx="9" fill="#ffffff" opacity="0.05"/><g transform="translate(26.48,173.48) scale(0.8600)"><g fill="#000000" opacity="0.30" filter="url(#soft)" transform="translate(2.4,3.0)"><path d="M50,31 C50,31 47,11 30,11 C8,11 8,38 8,38 C8,58 28,72 50,90 C72,72 92,58 92,38 C92,38 92,11 70,11 C53,11 50,31 50,31 Z"/></g><g fill="#ffffff" opacity="0.13" filter="url(#soft)" transform="translate(-2.0,-2.6)"><path d="M50,31 C50,31 47,11 30,11 C8,11 8,38 8,38 C8,58 28,72 50,90 C72,72 92,58 92,38 C92,38 92,11 70,11 C53,11 50,31 50,31 Z"/></g><g fill="#8c1414"><path d="M50,31 C50,31 47,11 30,11 C8,11 8,38 8,38 C8,58 28,72 50,90 C72,72 92,58 92,38 C92,38 92,11 70,11 C53,11 50,31 50,31 Z"/></g></g><g transform="translate(23.14,160.24) scale(0.1700)"><g fill="#ffffff" opacity="0.85"><path d="M50,31 C50,31 47,11 30,11 C8,11 8,38 8,38 C8,58 28,72 50,90 C72,72 92,58 92,38 C92,38 92,11 70,11 C53,11 50,31 50,31 Z"/></g></g><text x="60.0" y="244.0" text-anchor="middle" font-family="Arial Black, Arial, Helvetica, sans-serif" font-weight="800" font-size="69.4" fill="#000000" opacity="0.30">A</text><text x="58.5" y="242.0" text-anchor="middle" font-family="Arial Black, Arial, Helvetica, sans-serif" font-weight="800" font-size="69.4" fill="#ffffff">A</text></g><g><rect x="116" y="152" width="88" height="124" rx="12" fill="url(#grad_heart)"/><rect x="119" y="155" width="82" height="52" rx="9" fill="#ffffff" opacity="0.05"/><g transform="translate(124.48,173.48) scale(0.8600)"><g fill="#000000" opacity="0.30" filter="url(#soft)" transform="translate(2.4,3.0)"><path d="M50,31 C50,31 47,11 30,11 C8,11 8,38 8,38 C8,58 28,72 50,90 C72,72 92,58 92,38 C92,38 92,11 70,11 C53,11 50,31 50,31 Z"/></g><g fill="#ffffff" opacity="0.13" filter="url(#soft)" transform="translate(-2.0,-2.6)"><path d="M50,31 C50,31 47,11 30,11 C8,11 8,38 8,38 C8,58 28,72 50,90 C72,72 92,58 92,38 C92,38 92,11 70,11 C53,11 50,31 50,31 Z"/></g><g fill="#8c1414"><path d="M50,31 C50,31 47,11 30,11 C8,11 8,38 8,38 C8,58 28,72 50,90 C72,72 92,58 92,38 C92,38 92,11 70,11 C53,11 50,31 50,31 Z"/></g></g><g transform="translate(121.14,160.24) scale(0.1700)"><g fill="#ffffff" opacity="0.85"><path d="M50,31 C50,31 47,11 30,11 C8,11 8,38 8,38 C8,58 28,72 50,90 C72,72 92,58 92,38 C92,38 92,11 70,11 C53,11 50,31 50,31 Z"/></g></g><text x="158.0" y="244.0" text-anchor="middle" font-family="Arial Black, Arial, Helvetica, sans-serif" font-weight="800" font-size="69.4" fill="#000000" opacity="0.30">K</text><text x="156.5" y="242.0" text-anchor="middle" font-family="Arial Black, Arial, Helvetica, sans-serif" font-weight="800" font-size="69.4" fill="#ffffff">K</text></g><g><rect x="214" y="152" width="88" height="124" rx="12" fill="url(#grad_heart)"/><rect x="217" y="155" width="82" height="52" rx="9" fill="#ffffff" opacity="0.05"/><g transform="translate(222.48,173.48) scale(0.8600)"><g fill="#000000" opacity="0.30" filter="url(#soft)" transform="translate(2.4,3.0)"><path d="M50,31 C50,31 47,11 30,11 C8,11 8,38 8,38 C8,58 28,72 50,90 C72,72 92,58 92,38 C92,38 92,11 70,11 C53,11 50,31 50,31 Z"/></g><g fill="#ffffff" opacity="0.13" filter="url(#soft)" transform="translate(-2.0,-2.6)"><path d="M50,31 C50,31 47,11 30,11 C8,11 8,38 8,38 C8,58 28,72 50,90 C72,72 92,58 92,38 C92,38 92,11 70,11 C53,11 50,31 50,31 Z"/></g><g fill="#8c1414"><path d="M50,31 C50,31 47,11 30,11 C8,11 8,38 8,38 C8,58 28,72 50,90 C72,72 92,58 92,38 C92,38 92,11 70,11 C53,11 50,31 50,31 Z"/></g></g><g transform="translate(219.14,160.24) scale(0.1700)"><g fill="#ffffff" opacity="0.85"><path d="M50,31 C50,31 47,11 30,11 C8,11 8,38 8,38 C8,58 28,72 50,90 C72,72 92,58 92,38 C92,38 92,11 70,11 C53,11 50,31 50,31 Z"/></g></g><text x="256.0" y="244.0" text-anchor="middle" font-family="Arial Black, Arial, Helvetica, sans-serif" font-weight="800" font-size="69.4" fill="#000000" opacity="0.30">Q</text><text x="254.5" y="242.0" text-anchor="middle" font-family="Arial Black, Arial, Helvetica, sans-serif" font-weight="800" font-size="69.4" fill="#ffffff">Q</text></g><g><rect x="312" y="152" width="88" height="124" rx="12" fill="url(#grad_heart)"/><rect x="315" y="155" width="82" height="52" rx="9" fill="#ffffff" opacity="0.05"/><g transform="translate(320.48,173.48) scale(0.8600)"><g fill="#000000" opacity="0.30" filter="url(#soft)" transform="translate(2.4,3.0)"><path d="M50,31 C50,31 47,11 30,11 C8,11 8,38 8,38 C8,58 28,72 50,90 C72,72 92,58 92,38 C92,38 92,11 70,11 C53,11 50,31 50,31 Z"/></g><g fill="#ffffff" opacity="0.13" filter="url(#soft)" transform="translate(-2.0,-2.6)"><path d="M50,31 C50,31 47,11 30,11 C8,11 8,38 8,38 C8,58 28,72 50,90 C72,72 92,58 92,38 C92,38 92,11 70,11 C53,11 50,31 50,31 Z"/></g><g fill="#8c1414"><path d="M50,31 C50,31 47,11 30,11 C8,11 8,38 8,38 C8,58 28,72 50,90 C72,72 92,58 92,38 C92,38 92,11 70,11 C53,11 50,31 50,31 Z"/></g></g><g transform="translate(317.14,160.24) scale(0.1700)"><g fill="#ffffff" opacity="0.85"><path d="M50,31 C50,31 47,11 30,11 C8,11 8,38 8,38 C8,58 28,72 50,90 C72,72 92,58 92,38 C92,38 92,11 70,11 C53,11 50,31 50,31 Z"/></g></g><text x="354.0" y="244.0" text-anchor="middle" font-family="Arial Black, Arial, Helvetica, sans-serif" font-weight="800" font-size="69.4" fill="#000000" opacity="0.30">J</text><text x="352.5" y="242.0" text-anchor="middle" font-family="Arial Black, Arial, Helvetica, sans-serif" font-weight="800" font-size="69.4" fill="#ffffff">J</text></g><g><rect x="410" y="152" width="88" height="124" rx="12" fill="url(#grad_heart)"/><rect x="413" y="155" width="82" height="52" rx="9" fill="#ffffff" opacity="0.05"/><g transform="translate(418.48,173.48) scale(0.8600)"><g fill="#000000" opacity="0.30" filter="url(#soft)" transform="translate(2.4,3.0)"><path d="M50,31 C50,31 47,11 30,11 C8,11 8,38 8,38 C8,58 28,72 50,90 C72,72 92,58 92,38 C92,38 92,11 70,11 C53,11 50,31 50,31 Z"/></g><g fill="#ffffff" opacity="0.13" filter="url(#soft)" transform="translate(-2.0,-2.6)"><path d="M50,31 C50,31 47,11 30,11 C8,11 8,38 8,38 C8,58 28,72 50,90 C72,72 92,58 92,38 C92,38 92,11 70,11 C53,11 50,31 50,31 Z"/></g><g fill="#8c1414"><path d="M50,31 C50,31 47,11 30,11 C8,11 8,38 8,38 C8,58 28,72 50,90 C72,72 92,58 92,38 C92,38 92,11 70,11 C53,11 50,31 50,31 Z"/></g></g><g transform="translate(415.14,160.24) scale(0.1700)"><g fill="#ffffff" opacity="0.85"><path d="M50,31 C50,31 47,11 30,11 C8,11 8,38 8,38 C8,58 28,72 50,90 C72,72 92,58 92,38 C92,38 92,11 70,11 C53,11 50,31 50,31 Z"/></g></g><text x="452.0" y="244.0" text-anchor="middle" font-family="Arial Black, Arial, Helvetica, sans-serif" font-weight="800" font-size="69.4" fill="#000000" opacity="0.30">T</text><text x="450.5" y="242.0" text-anchor="middle" font-family="Arial Black, Arial, Helvetica, sans-serif" font-weight="800" font-size="69.4" fill="#ffffff">T</text></g><g><rect x="508" y="152" width="88" height="124" rx="12" fill="url(#grad_heart)"/><rect x="511" y="155" width="82" height="52" rx="9" fill="#ffffff" opacity="0.05"/><g transform="translate(516.48,173.48) scale(0.8600)"><g fill="#000000" opacity="0.30" filter="url(#soft)" transform="translate(2.4,3.0)"><path d="M50,31 C50,31 47,11 30,11 C8,11 8,38 8,38 C8,58 28,72 50,90 C72,72 92,58 92,38 C92,38 92,11 70,11 C53,11 50,31 50,31 Z"/></g><g fill="#ffffff" opacity="0.13" filter="url(#soft)" transform="translate(-2.0,-2.6)"><path d="M50,31 C50,31 47,11 30,11 C8,11 8,38 8,38 C8,58 28,72 50,90 C72,72 92,58 92,38 C92,38 92,11 70,11 C53,11 50,31 50,31 Z"/></g><g fill="#8c1414"><path d="M50,31 C50,31 47,11 30,11 C8,11 8,38 8,38 C8,58 28,72 50,90 C72,72 92,58 92,38 C92,38 92,11 70,11 C53,11 50,31 50,31 Z"/></g></g><g transform="translate(513.14,160.24) scale(0.1700)"><g fill="#ffffff" opacity="0.85"><path d="M50,31 C50,31 47,11 30,11 C8,11 8,38 8,38 C8,58 28,72 50,90 C72,72 92,58 92,38 C92,38 92,11 70,11 C53,11 50,31 50,31 Z"/></g></g><text x="550.0" y="244.0" text-anchor="middle" font-family="Arial Black, Arial, Helvetica, sans-serif" font-weight="800" font-size="69.4" fill="#000000" opacity="0.30">9</text><text x="548.5" y="242.0" text-anchor="middle" font-family="Arial Black, Arial, Helvetica, sans-serif" font-weight="800" font-size="69.4" fill="#ffffff">9</text></g><g><rect x="606" y="152" width="88" height="124" rx="12" fill="url(#grad_heart)"/><rect x="609" y="155" width="82" height="52" rx="9" fill="#ffffff" opacity="0.05"/><g transform="translate(614.48,173.48) scale(0.8600)"><g fill="#000000" opacity="0.30" filter="url(#soft)" transform="translate(2.4,3.0)"><path d="M50,31 C50,31 47,11 30,11 C8,11 8,38 8,38 C8,58 28,72 50,90 C72,72 92,58 92,38 C92,38 92,11 70,11 C53,11 50,31 50,31 Z"/></g><g fill="#ffffff" opacity="0.13" filter="url(#soft)" transform="translate(-2.0,-2.6)"><path d="M50,31 C50,31 47,11 30,11 C8,11 8,38 8,38 C8,58 28,72 50,90 C72,72 92,58 92,38 C92,38 92,11 70,11 C53,11 50,31 50,31 Z"/></g><g fill="#8c1414"><path d="M50,31 C50,31 47,11 30,11 C8,11 8,38 8,38 C8,58 28,72 50,90 C72,72 92,58 92,38 C92,38 92,11 70,11 C53,11 50,31 50,31 Z"/></g></g><g transform="translate(611.14,160.24) scale(0.1700)"><g fill="#ffffff" opacity="0.85"><path d="M50,31 C50,31 47,11 30,11 C8,11 8,38 8,38 C8,58 28,72 50,90 C72,72 92,58 92,38 C92,38 92,11 70,11 C53,11 50,31 50,31 Z"/></g></g><text x="648.0" y="244.0" text-anchor="middle" font-family="Arial Black, Arial, Helvetica, sans-serif" font-weight="800" font-size="69.4" fill="#000000" opacity="0.30">8</text><text x="646.5" y="242.0" text-anchor="middle" font-family="Arial Black, Arial, Helvetica, sans-serif" font-weight="800" font-size="69.4" fill="#ffffff">8</text></g><g><rect x="704" y="152" width="88" height="124" rx="12" fill="url(#grad_heart)"/><rect x="707" y="155" width="82" height="52" rx="9" fill="#ffffff" opacity="0.05"/><g transform="translate(712.48,173.48) scale(0.8600)"><g fill="#000000" opacity="0.30" filter="url(#soft)" transform="translate(2.4,3.0)"><path d="M50,31 C50,31 47,11 30,11 C8,11 8,38 8,38 C8,58 28,72 50,90 C72,72 92,58 92,38 C92,38 92,11 70,11 C53,11 50,31 50,31 Z"/></g><g fill="#ffffff" opacity="0.13" filter="url(#soft)" transform="translate(-2.0,-2.6)"><path d="M50,31 C50,31 47,11 30,11 C8,11 8,38 8,38 C8,58 28,72 50,90 C72,72 92,58 92,38 C92,38 92,11 70,11 C53,11 50,31 50,31 Z"/></g><g fill="#8c1414"><path d="M50,31 C50,31 47,11 30,11 C8,11 8,38 8,38 C8,58 28,72 50,90 C72,72 92,58 92,38 C92,38 92,11 70,11 C53,11 50,31 50,31 Z"/></g></g><g transform="translate(709.14,160.24) scale(0.1700)"><g fill="#ffffff" opacity="0.85"><path d="M50,31 C50,31 47,11 30,11 C8,11 8,38 8,38 C8,58 28,72 50,90 C72,72 92,58 92,38 C92,38 92,11 70,11 C53,11 50,31 50,31 Z"/></g></g><text x="746.0" y="244.0" text-anchor="middle" font-family="Arial Black, Arial, Helvetica, sans-serif" font-weight="800" font-size="69.4" fill="#000000" opacity="0.30">7</text><text x="744.5" y="242.0" text-anchor="middle" font-family="Arial Black, Arial, Helvetica, sans-serif" font-weight="800" font-size="69.4" fill="#ffffff">7</text></g><g><rect x="802" y="152" width="88" height="124" rx="12" fill="url(#grad_heart)"/><rect x="805" y="155" width="82" height="52" rx="9" fill="#ffffff" opacity="0.05"/><g transform="translate(810.48,173.48) scale(0.8600)"><g fill="#000000" opacity="0.30" filter="url(#soft)" transform="translate(2.4,3.0)"><path d="M50,31 C50,31 47,11 30,11 C8,11 8,38 8,38 C8,58 28,72 50,90 C72,72 92,58 92,38 C92,38 92,11 70,11 C53,11 50,31 50,31 Z"/></g><g fill="#ffffff" opacity="0.13" filter="url(#soft)" transform="translate(-2.0,-2.6)"><path d="M50,31 C50,31 47,11 30,11 C8,11 8,38 8,38 C8,58 28,72 50,90 C72,72 92,58 92,38 C92,38 92,11 70,11 C53,11 50,31 50,31 Z"/></g><g fill="#8c1414"><path d="M50,31 C50,31 47,11 30,11 C8,11 8,38 8,38 C8,58 28,72 50,90 C72,72 92,58 92,38 C92,38 92,11 70,11 C53,11 50,31 50,31 Z"/></g></g><g transform="translate(807.14,160.24) scale(0.1700)"><g fill="#ffffff" opacity="0.85"><path d="M50,31 C50,31 47,11 30,11 C8,11 8,38 8,38 C8,58 28,72 50,90 C72,72 92,58 92,38 C92,38 92,11 70,11 C53,11 50,31 50,31 Z"/></g></g><text x="844.0" y="244.0" text-anchor="middle" font-family="Arial Black, Arial, Helvetica, sans-serif" font-weight="800" font-size="69.4" fill="#000000" opacity="0.30">6</text><text x="842.5" y="242.0" text-anchor="middle" font-family="Arial Black, Arial, Helvetica, sans-serif" font-weight="800" font-size="69.4" fill="#ffffff">6</text></g><g><rect x="900" y="152" width="88" height="124" rx="12" fill="url(#grad_heart)"/><rect x="903" y="155" width="82" height="52" rx="9" fill="#ffffff" opacity="0.05"/><g transform="translate(908.48,173.48) scale(0.8600)"><g fill="#000000" opacity="0.30" filter="url(#soft)" transform="translate(2.4,3.0)"><path d="M50,31 C50,31 47,11 30,11 C8,11 8,38 8,38 C8,58 28,72 50,90 C72,72 92,58 92,38 C92,38 92,11 70,11 C53,11 50,31 50,31 Z"/></g><g fill="#ffffff" opacity="0.13" filter="url(#soft)" transform="translate(-2.0,-2.6)"><path d="M50,31 C50,31 47,11 30,11 C8,11 8,38 8,38 C8,58 28,72 50,90 C72,72 92,58 92,38 C92,38 92,11 70,11 C53,11 50,31 50,31 Z"/></g><g fill="#8c1414"><path d="M50,31 C50,31 47,11 30,11 C8,11 8,38 8,38 C8,58 28,72 50,90 C72,72 92,58 92,38 C92,38 92,11 70,11 C53,11 50,31 50,31 Z"/></g></g><g transform="translate(905.14,160.24) scale(0.1700)"><g fill="#ffffff" opacity="0.85"><path d="M50,31 C50,31 47,11 30,11 C8,11 8,38 8,38 C8,58 28,72 50,90 C72,72 92,58 92,38 C92,38 92,11 70,11 C53,11 50,31 50,31 Z"/></g></g><text x="942.0" y="244.0" text-anchor="middle" font-family="Arial Black, Arial, Helvetica, sans-serif" font-weight="800" font-size="69.4" fill="#000000" opacity="0.30">5</text><text x="940.5" y="242.0" text-anchor="middle" font-family="Arial Black, Arial, Helvetica, sans-serif" font-weight="800" font-size="69.4" fill="#ffffff">5</text></g><g><rect x="998" y="152" width="88" height="124" rx="12" fill="url(#grad_heart)"/><rect x="1001" y="155" width="82" height="52" rx="9" fill="#ffffff" opacity="0.05"/><g transform="translate(1006.48,173.48) scale(0.8600)"><g fill="#000000" opacity="0.30" filter="url(#soft)" transform="translate(2.4,3.0)"><path d="M50,31 C50,31 47,11 30,11 C8,11 8,38 8,38 C8,58 28,72 50,90 C72,72 92,58 92,38 C92,38 92,11 70,11 C53,11 50,31 50,31 Z"/></g><g fill="#ffffff" opacity="0.13" filter="url(#soft)" transform="translate(-2.0,-2.6)"><path d="M50,31 C50,31 47,11 30,11 C8,11 8,38 8,38 C8,58 28,72 50,90 C72,72 92,58 92,38 C92,38 92,11 70,11 C53,11 50,31 50,31 Z"/></g><g fill="#8c1414"><path d="M50,31 C50,31 47,11 30,11 C8,11 8,38 8,38 C8,58 28,72 50,90 C72,72 92,58 92,38 C92,38 92,11 70,11 C53,11 50,31 50,31 Z"/></g></g><g transform="translate(1003.14,160.24) scale(0.1700)"><g fill="#ffffff" opacity="0.85"><path d="M50,31 C50,31 47,11 30,11 C8,11 8,38 8,38 C8,58 28,72 50,90 C72,72 92,58 92,38 C92,38 92,11 70,11 C53,11 50,31 50,31 Z"/></g></g><text x="1040.0" y="244.0" text-anchor="middle" font-family="Arial Black, Arial, Helvetica, sans-serif" font-weight="800" font-size="69.4" fill="#000000" opacity="0.30">4</text><text x="1038.5" y="242.0" text-anchor="middle" font-family="Arial Black, Arial, Helvetica, sans-serif" font-weight="800" font-size="69.4" fill="#ffffff">4</text></g><g><rect x="1096" y="152" width="88" height="124" rx="12" fill="url(#grad_heart)"/><rect x="1099" y="155" width="82" height="52" rx="9" fill="#ffffff" opacity="0.05"/><g transform="translate(1104.48,173.48) scale(0.8600)"><g fill="#000000" opacity="0.30" filter="url(#soft)" transform="translate(2.4,3.0)"><path d="M50,31 C50,31 47,11 30,11 C8,11 8,38 8,38 C8,58 28,72 50,90 C72,72 92,58 92,38 C92,38 92,11 70,11 C53,11 50,31 50,31 Z"/></g><g fill="#ffffff" opacity="0.13" filter="url(#soft)" transform="translate(-2.0,-2.6)"><path d="M50,31 C50,31 47,11 30,11 C8,11 8,38 8,38 C8,58 28,72 50,90 C72,72 92,58 92,38 C92,38 92,11 70,11 C53,11 50,31 50,31 Z"/></g><g fill="#8c1414"><path d="M50,31 C50,31 47,11 30,11 C8,11 8,38 8,38 C8,58 28,72 50,90 C72,72 92,58 92,38 C92,38 92,11 70,11 C53,11 50,31 50,31 Z"/></g></g><g transform="translate(1101.14,160.24) scale(0.1700)"><g fill="#ffffff" opacity="0.85"><path d="M50,31 C50,31 47,11 30,11 C8,11 8,38 8,38 C8,58 28,72 50,90 C72,72 92,58 92,38 C92,38 92,11 70,11 C53,11 50,31 50,31 Z"/></g></g><text x="1138.0" y="244.0" text-anchor="middle" font-family="Arial Black, Arial, Helvetica, sans-serif" font-weight="800" font-size="69.4" fill="#000000" opacity="0.30">3</text><text x="1136.5" y="242.0" text-anchor="middle" font-family="Arial Black, Arial, Helvetica, sans-serif" font-weight="800" font-size="69.4" fill="#ffffff">3</text></g><g><rect x="1194" y="152" width="88" height="124" rx="12" fill="url(#grad_heart)"/><rect x="1197" y="155" width="82" height="52" rx="9" fill="#ffffff" opacity="0.05"/><g transform="translate(1202.48,173.48) scale(0.8600)"><g fill="#000000" opacity="0.30" filter="url(#soft)" transform="translate(2.4,3.0)"><path d="M50,31 C50,31 47,11 30,11 C8,11 8,38 8,38 C8,58 28,72 50,90 C72,72 92,58 92,38 C92,38 92,11 70,11 C53,11 50,31 50,31 Z"/></g><g fill="#ffffff" opacity="0.13" filter="url(#soft)" transform="translate(-2.0,-2.6)"><path d="M50,31 C50,31 47,11 30,11 C8,11 8,38 8,38 C8,58 28,72 50,90 C72,72 92,58 92,38 C92,38 92,11 70,11 C53,11 50,31 50,31 Z"/></g><g fill="#8c1414"><path d="M50,31 C50,31 47,11 30,11 C8,11 8,38 8,38 C8,58 28,72 50,90 C72,72 92,58 92,38 C92,38 92,11 70,11 C53,11 50,31 50,31 Z"/></g></g><g transform="translate(1199.14,160.24) scale(0.1700)"><g fill="#ffffff" opacity="0.85"><path d="M50,31 C50,31 47,11 30,11 C8,11 8,38 8,38 C8,58 28,72 50,90 C72,72 92,58 92,38 C92,38 92,11 70,11 C53,11 50,31 50,31 Z"/></g></g><text x="1236.0" y="244.0" text-anchor="middle" font-family="Arial Black, Arial, Helvetica, sans-serif" font-weight="800" font-size="69.4" fill="#000000" opacity="0.30">2</text><text x="1234.5" y="242.0" text-anchor="middle" font-family="Arial Black, Arial, Helvetica, sans-serif" font-weight="800" font-size="69.4" fill="#ffffff">2</text></g><g><rect x="18" y="286" width="88" height="124" rx="12" fill="url(#grad_diamond)"/><rect x="21" y="289" width="82" height="52" rx="9" fill="#ffffff" opacity="0.05"/><g transform="translate(26.48,307.48) scale(0.8600)"><g fill="#000000" opacity="0.30" filter="url(#soft)" transform="translate(2.4,3.0)"><path d="M50,8 L88,50 L50,92 L12,50 Z"/></g><g fill="#ffffff" opacity="0.13" filter="url(#soft)" transform="translate(-2.0,-2.6)"><path d="M50,8 L88,50 L50,92 L12,50 Z"/></g><g fill="#132d98"><path d="M50,8 L88,50 L50,92 L12,50 Z"/></g></g><g transform="translate(23.14,294.24) scale(0.1700)"><g fill="#ffffff" opacity="0.85"><path d="M50,8 L88,50 L50,92 L12,50 Z"/></g></g><text x="60.0" y="378.0" text-anchor="middle" font-family="Arial Black, Arial, Helvetica, sans-serif" font-weight="800" font-size="69.4" fill="#000000" opacity="0.30">A</text><text x="58.5" y="376.0" text-anchor="middle" font-family="Arial Black, Arial, Helvetica, sans-serif" font-weight="800" font-size="69.4" fill="#ffffff">A</text></g><g><rect x="116" y="286" width="88" height="124" rx="12" fill="url(#grad_diamond)"/><rect x="119" y="289" width="82" height="52" rx="9" fill="#ffffff" opacity="0.05"/><g transform="translate(124.48,307.48) scale(0.8600)"><g fill="#000000" opacity="0.30" filter="url(#soft)" transform="translate(2.4,3.0)"><path d="M50,8 L88,50 L50,92 L12,50 Z"/></g><g fill="#ffffff" opacity="0.13" filter="url(#soft)" transform="translate(-2.0,-2.6)"><path d="M50,8 L88,50 L50,92 L12,50 Z"/></g><g fill="#132d98"><path d="M50,8 L88,50 L50,92 L12,50 Z"/></g></g><g transform="translate(121.14,294.24) scale(0.1700)"><g fill="#ffffff" opacity="0.85"><path d="M50,8 L88,50 L50,92 L12,50 Z"/></g></g><text x="158.0" y="378.0" text-anchor="middle" font-family="Arial Black, Arial, Helvetica, sans-serif" font-weight="800" font-size="69.4" fill="#000000" opacity="0.30">K</text><text x="156.5" y="376.0" text-anchor="middle" font-family="Arial Black, Arial, Helvetica, sans-serif" font-weight="800" font-size="69.4" fill="#ffffff">K</text></g><g><rect x="214" y="286" width="88" height="124" rx="12" fill="url(#grad_diamond)"/><rect x="217" y="289" width="82" height="52" rx="9" fill="#ffffff" opacity="0.05"/><g transform="translate(222.48,307.48) scale(0.8600)"><g fill="#000000" opacity="0.30" filter="url(#soft)" transform="translate(2.4,3.0)"><path d="M50,8 L88,50 L50,92 L12,50 Z"/></g><g fill="#ffffff" opacity="0.13" filter="url(#soft)" transform="translate(-2.0,-2.6)"><path d="M50,8 L88,50 L50,92 L12,50 Z"/></g><g fill="#132d98"><path d="M50,8 L88,50 L50,92 L12,50 Z"/></g></g><g transform="translate(219.14,294.24) scale(0.1700)"><g fill="#ffffff" opacity="0.85"><path d="M50,8 L88,50 L50,92 L12,50 Z"/></g></g><text x="256.0" y="378.0" text-anchor="middle" font-family="Arial Black, Arial, Helvetica, sans-serif" font-weight="800" font-size="69.4" fill="#000000" opacity="0.30">Q</text><text x="254.5" y="376.0" text-anchor="middle" font-family="Arial Black, Arial, Helvetica, sans-serif" font-weight="800" font-size="69.4" fill="#ffffff">Q</text></g><g><rect x="312" y="286" width="88" height="124" rx="12" fill="url(#grad_diamond)"/><rect x="315" y="289" width="82" height="52" rx="9" fill="#ffffff" opacity="0.05"/><g transform="translate(320.48,307.48) scale(0.8600)"><g fill="#000000" opacity="0.30" filter="url(#soft)" transform="translate(2.4,3.0)"><path d="M50,8 L88,50 L50,92 L12,50 Z"/></g><g fill="#ffffff" opacity="0.13" filter="url(#soft)" transform="translate(-2.0,-2.6)"><path d="M50,8 L88,50 L50,92 L12,50 Z"/></g><g fill="#132d98"><path d="M50,8 L88,50 L50,92 L12,50 Z"/></g></g><g transform="translate(317.14,294.24) scale(0.1700)"><g fill="#ffffff" opacity="0.85"><path d="M50,8 L88,50 L50,92 L12,50 Z"/></g></g><text x="354.0" y="378.0" text-anchor="middle" font-family="Arial Black, Arial, Helvetica, sans-serif" font-weight="800" font-size="69.4" fill="#000000" opacity="0.30">J</text><text x="352.5" y="376.0" text-anchor="middle" font-family="Arial Black, Arial, Helvetica, sans-serif" font-weight="800" font-size="69.4" fill="#ffffff">J</text></g><g><rect x="410" y="286" width="88" height="124" rx="12" fill="url(#grad_diamond)"/><rect x="413" y="289" width="82" height="52" rx="9" fill="#ffffff" opacity="0.05"/><g transform="translate(418.48,307.48) scale(0.8600)"><g fill="#000000" opacity="0.30" filter="url(#soft)" transform="translate(2.4,3.0)"><path d="M50,8 L88,50 L50,92 L12,50 Z"/></g><g fill="#ffffff" opacity="0.13" filter="url(#soft)" transform="translate(-2.0,-2.6)"><path d="M50,8 L88,50 L50,92 L12,50 Z"/></g><g fill="#132d98"><path d="M50,8 L88,50 L50,92 L12,50 Z"/></g></g><g transform="translate(415.14,294.24) scale(0.1700)"><g fill="#ffffff" opacity="0.85"><path d="M50,8 L88,50 L50,92 L12,50 Z"/></g></g><text x="452.0" y="378.0" text-anchor="middle" font-family="Arial Black, Arial, Helvetica, sans-serif" font-weight="800" font-size="69.4" fill="#000000" opacity="0.30">T</text><text x="450.5" y="376.0" text-anchor="middle" font-family="Arial Black, Arial, Helvetica, sans-serif" font-weight="800" font-size="69.4" fill="#ffffff">T</text></g><g><rect x="508" y="286" width="88" height="124" rx="12" fill="url(#grad_diamond)"/><rect x="511" y="289" width="82" height="52" rx="9" fill="#ffffff" opacity="0.05"/><g transform="translate(516.48,307.48) scale(0.8600)"><g fill="#000000" opacity="0.30" filter="url(#soft)" transform="translate(2.4,3.0)"><path d="M50,8 L88,50 L50,92 L12,50 Z"/></g><g fill="#ffffff" opacity="0.13" filter="url(#soft)" transform="translate(-2.0,-2.6)"><path d="M50,8 L88,50 L50,92 L12,50 Z"/></g><g fill="#132d98"><path d="M50,8 L88,50 L50,92 L12,50 Z"/></g></g><g transform="translate(513.14,294.24) scale(0.1700)"><g fill="#ffffff" opacity="0.85"><path d="M50,8 L88,50 L50,92 L12,50 Z"/></g></g><text x="550.0" y="378.0" text-anchor="middle" font-family="Arial Black, Arial, Helvetica, sans-serif" font-weight="800" font-size="69.4" fill="#000000" opacity="0.30">9</text><text x="548.5" y="376.0" text-anchor="middle" font-family="Arial Black, Arial, Helvetica, sans-serif" font-weight="800" font-size="69.4" fill="#ffffff">9</text></g><g><rect x="606" y="286" width="88" height="124" rx="12" fill="url(#grad_diamond)"/><rect x="609" y="289" width="82" height="52" rx="9" fill="#ffffff" opacity="0.05"/><g transform="translate(614.48,307.48) scale(0.8600)"><g fill="#000000" opacity="0.30" filter="url(#soft)" transform="translate(2.4,3.0)"><path d="M50,8 L88,50 L50,92 L12,50 Z"/></g><g fill="#ffffff" opacity="0.13" filter="url(#soft)" transform="translate(-2.0,-2.6)"><path d="M50,8 L88,50 L50,92 L12,50 Z"/></g><g fill="#132d98"><path d="M50,8 L88,50 L50,92 L12,50 Z"/></g></g><g transform="translate(611.14,294.24) scale(0.1700)"><g fill="#ffffff" opacity="0.85"><path d="M50,8 L88,50 L50,92 L12,50 Z"/></g></g><text x="648.0" y="378.0" text-anchor="middle" font-family="Arial Black, Arial, Helvetica, sans-serif" font-weight="800" font-size="69.4" fill="#000000" opacity="0.30">8</text><text x="646.5" y="376.0" text-anchor="middle" font-family="Arial Black, Arial, Helvetica, sans-serif" font-weight="800" font-size="69.4" fill="#ffffff">8</text></g><g><rect x="704" y="286" width="88" height="124" rx="12" fill="url(#grad_diamond)"/><rect x="707" y="289" width="82" height="52" rx="9" fill="#ffffff" opacity="0.05"/><g transform="translate(712.48,307.48) scale(0.8600)"><g fill="#000000" opacity="0.30" filter="url(#soft)" transform="translate(2.4,3.0)"><path d="M50,8 L88,50 L50,92 L12,50 Z"/></g><g fill="#ffffff" opacity="0.13" filter="url(#soft)" transform="translate(-2.0,-2.6)"><path d="M50,8 L88,50 L50,92 L12,50 Z"/></g><g fill="#132d98"><path d="M50,8 L88,50 L50,92 L12,50 Z"/></g></g><g transform="translate(709.14,294.24) scale(0.1700)"><g fill="#ffffff" opacity="0.85"><path d="M50,8 L88,50 L50,92 L12,50 Z"/></g></g><text x="746.0" y="378.0" text-anchor="middle" font-family="Arial Black, Arial, Helvetica, sans-serif" font-weight="800" font-size="69.4" fill="#000000" opacity="0.30">7</text><text x="744.5" y="376.0" text-anchor="middle" font-family="Arial Black, Arial, Helvetica, sans-serif" font-weight="800" font-size="69.4" fill="#ffffff">7</text></g><g><rect x="802" y="286" width="88" height="124" rx="12" fill="url(#grad_diamond)"/><rect x="805" y="289" width="82" height="52" rx="9" fill="#ffffff" opacity="0.05"/><g transform="translate(810.48,307.48) scale(0.8600)"><g fill="#000000" opacity="0.30" filter="url(#soft)" transform="translate(2.4,3.0)"><path d="M50,8 L88,50 L50,92 L12,50 Z"/></g><g fill="#ffffff" opacity="0.13" filter="url(#soft)" transform="translate(-2.0,-2.6)"><path d="M50,8 L88,50 L50,92 L12,50 Z"/></g><g fill="#132d98"><path d="M50,8 L88,50 L50,92 L12,50 Z"/></g></g><g transform="translate(807.14,294.24) scale(0.1700)"><g fill="#ffffff" opacity="0.85"><path d="M50,8 L88,50 L50,92 L12,50 Z"/></g></g><text x="844.0" y="378.0" text-anchor="middle" font-family="Arial Black, Arial, Helvetica, sans-serif" font-weight="800" font-size="69.4" fill="#000000" opacity="0.30">6</text><text x="842.5" y="376.0" text-anchor="middle" font-family="Arial Black, Arial, Helvetica, sans-serif" font-weight="800" font-size="69.4" fill="#ffffff">6</text></g><g><rect x="900" y="286" width="88" height="124" rx="12" fill="url(#grad_diamond)"/><rect x="903" y="289" width="82" height="52" rx="9" fill="#ffffff" opacity="0.05"/><g transform="translate(908.48,307.48) scale(0.8600)"><g fill="#000000" opacity="0.30" filter="url(#soft)" transform="translate(2.4,3.0)"><path d="M50,8 L88,50 L50,92 L12,50 Z"/></g><g fill="#ffffff" opacity="0.13" filter="url(#soft)" transform="translate(-2.0,-2.6)"><path d="M50,8 L88,50 L50,92 L12,50 Z"/></g><g fill="#132d98"><path d="M50,8 L88,50 L50,92 L12,50 Z"/></g></g><g transform="translate(905.14,294.24) scale(0.1700)"><g fill="#ffffff" opacity="0.85"><path d="M50,8 L88,50 L50,92 L12,50 Z"/></g></g><text x="942.0" y="378.0" text-anchor="middle" font-family="Arial Black, Arial, Helvetica, sans-serif" font-weight="800" font-size="69.4" fill="#000000" opacity="0.30">5</text><text x="940.5" y="376.0" text-anchor="middle" font-family="Arial Black, Arial, Helvetica, sans-serif" font-weight="800" font-size="69.4" fill="#ffffff">5</text></g><g><rect x="998" y="286" width="88" height="124" rx="12" fill="url(#grad_diamond)"/><rect x="1001" y="289" width="82" height="52" rx="9" fill="#ffffff" opacity="0.05"/><g transform="translate(1006.48,307.48) scale(0.8600)"><g fill="#000000" opacity="0.30" filter="url(#soft)" transform="translate(2.4,3.0)"><path d="M50,8 L88,50 L50,92 L12,50 Z"/></g><g fill="#ffffff" opacity="0.13" filter="url(#soft)" transform="translate(-2.0,-2.6)"><path d="M50,8 L88,50 L50,92 L12,50 Z"/></g><g fill="#132d98"><path d="M50,8 L88,50 L50,92 L12,50 Z"/></g></g><g transform="translate(1003.14,294.24) scale(0.1700)"><g fill="#ffffff" opacity="0.85"><path d="M50,8 L88,50 L50,92 L12,50 Z"/></g></g><text x="1040.0" y="378.0" text-anchor="middle" font-family="Arial Black, Arial, Helvetica, sans-serif" font-weight="800" font-size="69.4" fill="#000000" opacity="0.30">4</text><text x="1038.5" y="376.0" text-anchor="middle" font-family="Arial Black, Arial, Helvetica, sans-serif" font-weight="800" font-size="69.4" fill="#ffffff">4</text></g><g><rect x="1096" y="286" width="88" height="124" rx="12" fill="url(#grad_diamond)"/><rect x="1099" y="289" width="82" height="52" rx="9" fill="#ffffff" opacity="0.05"/><g transform="translate(1104.48,307.48) scale(0.8600)"><g fill="#000000" opacity="0.30" filter="url(#soft)" transform="translate(2.4,3.0)"><path d="M50,8 L88,50 L50,92 L12,50 Z"/></g><g fill="#ffffff" opacity="0.13" filter="url(#soft)" transform="translate(-2.0,-2.6)"><path d="M50,8 L88,50 L50,92 L12,50 Z"/></g><g fill="#132d98"><path d="M50,8 L88,50 L50,92 L12,50 Z"/></g></g><g transform="translate(1101.14,294.24) scale(0.1700)"><g fill="#ffffff" opacity="0.85"><path d="M50,8 L88,50 L50,92 L12,50 Z"/></g></g><text x="1138.0" y="378.0" text-anchor="middle" font-family="Arial Black, Arial, Helvetica, sans-serif" font-weight="800" font-size="69.4" fill="#000000" opacity="0.30">3</text><text x="1136.5" y="376.0" text-anchor="middle" font-family="Arial Black, Arial, Helvetica, sans-serif" font-weight="800" font-size="69.4" fill="#ffffff">3</text></g><g><rect x="1194" y="286" width="88" height="124" rx="12" fill="url(#grad_diamond)"/><rect x="1197" y="289" width="82" height="52" rx="9" fill="#ffffff" opacity="0.05"/><g transform="translate(1202.48,307.48) scale(0.8600)"><g fill="#000000" opacity="0.30" filter="url(#soft)" transform="translate(2.4,3.0)"><path d="M50,8 L88,50 L50,92 L12,50 Z"/></g><g fill="#ffffff" opacity="0.13" filter="url(#soft)" transform="translate(-2.0,-2.6)"><path d="M50,8 L88,50 L50,92 L12,50 Z"/></g><g fill="#132d98"><path d="M50,8 L88,50 L50,92 L12,50 Z"/></g></g><g transform="translate(1199.14,294.24) scale(0.1700)"><g fill="#ffffff" opacity="0.85"><path d="M50,8 L88,50 L50,92 L12,50 Z"/></g></g><text x="1236.0" y="378.0" text-anchor="middle" font-family="Arial Black, Arial, Helvetica, sans-serif" font-weight="800" font-size="69.4" fill="#000000" opacity="0.30">2</text><text x="1234.5" y="376.0" text-anchor="middle" font-family="Arial Black, Arial, Helvetica, sans-serif" font-weight="800" font-size="69.4" fill="#ffffff">2</text></g><g><rect x="18" y="420" width="88" height="124" rx="12" fill="url(#grad_club)"/><rect x="21" y="423" width="82" height="52" rx="9" fill="#ffffff" opacity="0.05"/><g transform="translate(26.48,441.48) scale(0.8600)"><g fill="#000000" opacity="0.30" filter="url(#soft)" transform="translate(2.4,3.0)"><circle cx="50" cy="32" r="18"/><circle cx="32" cy="56" r="18"/><circle cx="68" cy="56" r="18"/><path d="M50,52 C54,68 58,80 68,92 L32,92 C42,80 46,68 50,52 Z"/></g><g fill="#ffffff" opacity="0.13" filter="url(#soft)" transform="translate(-2.0,-2.6)"><circle cx="50" cy="32" r="18"/><circle cx="32" cy="56" r="18"/><circle cx="68" cy="56" r="18"/><path d="M50,52 C54,68 58,80 68,92 L32,92 C42,80 46,68 50,52 Z"/></g><g fill="#117622"><circle cx="50" cy="32" r="18"/><circle cx="32" cy="56" r="18"/><circle cx="68" cy="56" r="18"/><path d="M50,52 C54,68 58,80 68,92 L32,92 C42,80 46,68 50,52 Z"/></g></g><g transform="translate(23.14,428.24) scale(0.1700)"><g fill="#ffffff" opacity="0.85"><circle cx="50" cy="32" r="18"/><circle cx="32" cy="56" r="18"/><circle cx="68" cy="56" r="18"/><path d="M50,52 C54,68 58,80 68,92 L32,92 C42,80 46,68 50,52 Z"/></g></g><text x="60.0" y="512.0" text-anchor="middle" font-family="Arial Black, Arial, Helvetica, sans-serif" font-weight="800" font-size="69.4" fill="#000000" opacity="0.30">A</text><text x="58.5" y="510.0" text-anchor="middle" font-family="Arial Black, Arial, Helvetica, sans-serif" font-weight="800" font-size="69.4" fill="#ffffff">A</text></g><g><rect x="116" y="420" width="88" height="124" rx="12" fill="url(#grad_club)"/><rect x="119" y="423" width="82" height="52" rx="9" fill="#ffffff" opacity="0.05"/><g transform="translate(124.48,441.48) scale(0.8600)"><g fill="#000000" opacity="0.30" filter="url(#soft)" transform="translate(2.4,3.0)"><circle cx="50" cy="32" r="18"/><circle cx="32" cy="56" r="18"/><circle cx="68" cy="56" r="18"/><path d="M50,52 C54,68 58,80 68,92 L32,92 C42,80 46,68 50,52 Z"/></g><g fill="#ffffff" opacity="0.13" filter="url(#soft)" transform="translate(-2.0,-2.6)"><circle cx="50" cy="32" r="18"/><circle cx="32" cy="56" r="18"/><circle cx="68" cy="56" r="18"/><path d="M50,52 C54,68 58,80 68,92 L32,92 C42,80 46,68 50,52 Z"/></g><g fill="#117622"><circle cx="50" cy="32" r="18"/><circle cx="32" cy="56" r="18"/><circle cx="68" cy="56" r="18"/><path d="M50,52 C54,68 58,80 68,92 L32,92 C42,80 46,68 50,52 Z"/></g></g><g transform="translate(121.14,428.24) scale(0.1700)"><g fill="#ffffff" opacity="0.85"><circle cx="50" cy="32" r="18"/><circle cx="32" cy="56" r="18"/><circle cx="68" cy="56" r="18"/><path d="M50,52 C54,68 58,80 68,92 L32,92 C42,80 46,68 50,52 Z"/></g></g><text x="158.0" y="512.0" text-anchor="middle" font-family="Arial Black, Arial, Helvetica, sans-serif" font-weight="800" font-size="69.4" fill="#000000" opacity="0.30">K</text><text x="156.5" y="510.0" text-anchor="middle" font-family="Arial Black, Arial, Helvetica, sans-serif" font-weight="800" font-size="69.4" fill="#ffffff">K</text></g><g><rect x="214" y="420" width="88" height="124" rx="12" fill="url(#grad_club)"/><rect x="217" y="423" width="82" height="52" rx="9" fill="#ffffff" opacity="0.05"/><g transform="translate(222.48,441.48) scale(0.8600)"><g fill="#000000" opacity="0.30" filter="url(#soft)" transform="translate(2.4,3.0)"><circle cx="50" cy="32" r="18"/><circle cx="32" cy="56" r="18"/><circle cx="68" cy="56" r="18"/><path d="M50,52 C54,68 58,80 68,92 L32,92 C42,80 46,68 50,52 Z"/></g><g fill="#ffffff" opacity="0.13" filter="url(#soft)" transform="translate(-2.0,-2.6)"><circle cx="50" cy="32" r="18"/><circle cx="32" cy="56" r="18"/><circle cx="68" cy="56" r="18"/><path d="M50,52 C54,68 58,80 68,92 L32,92 C42,80 46,68 50,52 Z"/></g><g fill="#117622"><circle cx="50" cy="32" r="18"/><circle cx="32" cy="56" r="18"/><circle cx="68" cy="56" r="18"/><path d="M50,52 C54,68 58,80 68,92 L32,92 C42,80 46,68 50,52 Z"/></g></g><g transform="translate(219.14,428.24) scale(0.1700)"><g fill="#ffffff" opacity="0.85"><circle cx="50" cy="32" r="18"/><circle cx="32" cy="56" r="18"/><circle cx="68" cy="56" r="18"/><path d="M50,52 C54,68 58,80 68,92 L32,92 C42,80 46,68 50,52 Z"/></g></g><text x="256.0" y="512.0" text-anchor="middle" font-family="Arial Black, Arial, Helvetica, sans-serif" font-weight="800" font-size="69.4" fill="#000000" opacity="0.30">Q</text><text x="254.5" y="510.0" text-anchor="middle" font-family="Arial Black, Arial, Helvetica, sans-serif" font-weight="800" font-size="69.4" fill="#ffffff">Q</text></g><g><rect x="312" y="420" width="88" height="124" rx="12" fill="url(#grad_club)"/><rect x="315" y="423" width="82" height="52" rx="9" fill="#ffffff" opacity="0.05"/><g transform="translate(320.48,441.48) scale(0.8600)"><g fill="#000000" opacity="0.30" filter="url(#soft)" transform="translate(2.4,3.0)"><circle cx="50" cy="32" r="18"/><circle cx="32" cy="56" r="18"/><circle cx="68" cy="56" r="18"/><path d="M50,52 C54,68 58,80 68,92 L32,92 C42,80 46,68 50,52 Z"/></g><g fill="#ffffff" opacity="0.13" filter="url(#soft)" transform="translate(-2.0,-2.6)"><circle cx="50" cy="32" r="18"/><circle cx="32" cy="56" r="18"/><circle cx="68" cy="56" r="18"/><path d="M50,52 C54,68 58,80 68,92 L32,92 C42,80 46,68 50,52 Z"/></g><g fill="#117622"><circle cx="50" cy="32" r="18"/><circle cx="32" cy="56" r="18"/><circle cx="68" cy="56" r="18"/><path d="M50,52 C54,68 58,80 68,92 L32,92 C42,80 46,68 50,52 Z"/></g></g><g transform="translate(317.14,428.24) scale(0.1700)"><g fill="#ffffff" opacity="0.85"><circle cx="50" cy="32" r="18"/><circle cx="32" cy="56" r="18"/><circle cx="68" cy="56" r="18"/><path d="M50,52 C54,68 58,80 68,92 L32,92 C42,80 46,68 50,52 Z"/></g></g><text x="354.0" y="512.0" text-anchor="middle" font-family="Arial Black, Arial, Helvetica, sans-serif" font-weight="800" font-size="69.4" fill="#000000" opacity="0.30">J</text><text x="352.5" y="510.0" text-anchor="middle" font-family="Arial Black, Arial, Helvetica, sans-serif" font-weight="800" font-size="69.4" fill="#ffffff">J</text></g><g><rect x="410" y="420" width="88" height="124" rx="12" fill="url(#grad_club)"/><rect x="413" y="423" width="82" height="52" rx="9" fill="#ffffff" opacity="0.05"/><g transform="translate(418.48,441.48) scale(0.8600)"><g fill="#000000" opacity="0.30" filter="url(#soft)" transform="translate(2.4,3.0)"><circle cx="50" cy="32" r="18"/><circle cx="32" cy="56" r="18"/><circle cx="68" cy="56" r="18"/><path d="M50,52 C54,68 58,80 68,92 L32,92 C42,80 46,68 50,52 Z"/></g><g fill="#ffffff" opacity="0.13" filter="url(#soft)" transform="translate(-2.0,-2.6)"><circle cx="50" cy="32" r="18"/><circle cx="32" cy="56" r="18"/><circle cx="68" cy="56" r="18"/><path d="M50,52 C54,68 58,80 68,92 L32,92 C42,80 46,68 50,52 Z"/></g><g fill="#117622"><circle cx="50" cy="32" r="18"/><circle cx="32" cy="56" r="18"/><circle cx="68" cy="56" r="18"/><path d="M50,52 C54,68 58,80 68,92 L32,92 C42,80 46,68 50,52 Z"/></g></g><g transform="translate(415.14,428.24) scale(0.1700)"><g fill="#ffffff" opacity="0.85"><circle cx="50" cy="32" r="18"/><circle cx="32" cy="56" r="18"/><circle cx="68" cy="56" r="18"/><path d="M50,52 C54,68 58,80 68,92 L32,92 C42,80 46,68 50,52 Z"/></g></g><text x="452.0" y="512.0" text-anchor="middle" font-family="Arial Black, Arial, Helvetica, sans-serif" font-weight="800" font-size="69.4" fill="#000000" opacity="0.30">T</text><text x="450.5" y="510.0" text-anchor="middle" font-family="Arial Black, Arial, Helvetica, sans-serif" font-weight="800" font-size="69.4" fill="#ffffff">T</text></g><g><rect x="508" y="420" width="88" height="124" rx="12" fill="url(#grad_club)"/><rect x="511" y="423" width="82" height="52" rx="9" fill="#ffffff" opacity="0.05"/><g transform="translate(516.48,441.48) scale(0.8600)"><g fill="#000000" opacity="0.30" filter="url(#soft)" transform="translate(2.4,3.0)"><circle cx="50" cy="32" r="18"/><circle cx="32" cy="56" r="18"/><circle cx="68" cy="56" r="18"/><path d="M50,52 C54,68 58,80 68,92 L32,92 C42,80 46,68 50,52 Z"/></g><g fill="#ffffff" opacity="0.13" filter="url(#soft)" transform="translate(-2.0,-2.6)"><circle cx="50" cy="32" r="18"/><circle cx="32" cy="56" r="18"/><circle cx="68" cy="56" r="18"/><path d="M50,52 C54,68 58,80 68,92 L32,92 C42,80 46,68 50,52 Z"/></g><g fill="#117622"><circle cx="50" cy="32" r="18"/><circle cx="32" cy="56" r="18"/><circle cx="68" cy="56" r="18"/><path d="M50,52 C54,68 58,80 68,92 L32,92 C42,80 46,68 50,52 Z"/></g></g><g transform="translate(513.14,428.24) scale(0.1700)"><g fill="#ffffff" opacity="0.85"><circle cx="50" cy="32" r="18"/><circle cx="32" cy="56" r="18"/><circle cx="68" cy="56" r="18"/><path d="M50,52 C54,68 58,80 68,92 L32,92 C42,80 46,68 50,52 Z"/></g></g><text x="550.0" y="512.0" text-anchor="middle" font-family="Arial Black, Arial, Helvetica, sans-serif" font-weight="800" font-size="69.4" fill="#000000" opacity="0.30">9</text><text x="548.5" y="510.0" text-anchor="middle" font-family="Arial Black, Arial, Helvetica, sans-serif" font-weight="800" font-size="69.4" fill="#ffffff">9</text></g><g><rect x="606" y="420" width="88" height="124" rx="12" fill="url(#grad_club)"/><rect x="609" y="423" width="82" height="52" rx="9" fill="#ffffff" opacity="0.05"/><g transform="translate(614.48,441.48) scale(0.8600)"><g fill="#000000" opacity="0.30" filter="url(#soft)" transform="translate(2.4,3.0)"><circle cx="50" cy="32" r="18"/><circle cx="32" cy="56" r="18"/><circle cx="68" cy="56" r="18"/><path d="M50,52 C54,68 58,80 68,92 L32,92 C42,80 46,68 50,52 Z"/></g><g fill="#ffffff" opacity="0.13" filter="url(#soft)" transform="translate(-2.0,-2.6)"><circle cx="50" cy="32" r="18"/><circle cx="32" cy="56" r="18"/><circle cx="68" cy="56" r="18"/><path d="M50,52 C54,68 58,80 68,92 L32,92 C42,80 46,68 50,52 Z"/></g><g fill="#117622"><circle cx="50" cy="32" r="18"/><circle cx="32" cy="56" r="18"/><circle cx="68" cy="56" r="18"/><path d="M50,52 C54,68 58,80 68,92 L32,92 C42,80 46,68 50,52 Z"/></g></g><g transform="translate(611.14,428.24) scale(0.1700)"><g fill="#ffffff" opacity="0.85"><circle cx="50" cy="32" r="18"/><circle cx="32" cy="56" r="18"/><circle cx="68" cy="56" r="18"/><path d="M50,52 C54,68 58,80 68,92 L32,92 C42,80 46,68 50,52 Z"/></g></g><text x="648.0" y="512.0" text-anchor="middle" font-family="Arial Black, Arial, Helvetica, sans-serif" font-weight="800" font-size="69.4" fill="#000000" opacity="0.30">8</text><text x="646.5" y="510.0" text-anchor="middle" font-family="Arial Black, Arial, Helvetica, sans-serif" font-weight="800" font-size="69.4" fill="#ffffff">8</text></g><g><rect x="704" y="420" width="88" height="124" rx="12" fill="url(#grad_club)"/><rect x="707" y="423" width="82" height="52" rx="9" fill="#ffffff" opacity="0.05"/><g transform="translate(712.48,441.48) scale(0.8600)"><g fill="#000000" opacity="0.30" filter="url(#soft)" transform="translate(2.4,3.0)"><circle cx="50" cy="32" r="18"/><circle cx="32" cy="56" r="18"/><circle cx="68" cy="56" r="18"/><path d="M50,52 C54,68 58,80 68,92 L32,92 C42,80 46,68 50,52 Z"/></g><g fill="#ffffff" opacity="0.13" filter="url(#soft)" transform="translate(-2.0,-2.6)"><circle cx="50" cy="32" r="18"/><circle cx="32" cy="56" r="18"/><circle cx="68" cy="56" r="18"/><path d="M50,52 C54,68 58,80 68,92 L32,92 C42,80 46,68 50,52 Z"/></g><g fill="#117622"><circle cx="50" cy="32" r="18"/><circle cx="32" cy="56" r="18"/><circle cx="68" cy="56" r="18"/><path d="M50,52 C54,68 58,80 68,92 L32,92 C42,80 46,68 50,52 Z"/></g></g><g transform="translate(709.14,428.24) scale(0.1700)"><g fill="#ffffff" opacity="0.85"><circle cx="50" cy="32" r="18"/><circle cx="32" cy="56" r="18"/><circle cx="68" cy="56" r="18"/><path d="M50,52 C54,68 58,80 68,92 L32,92 C42,80 46,68 50,52 Z"/></g></g><text x="746.0" y="512.0" text-anchor="middle" font-family="Arial Black, Arial, Helvetica, sans-serif" font-weight="800" font-size="69.4" fill="#000000" opacity="0.30">7</text><text x="744.5" y="510.0" text-anchor="middle" font-family="Arial Black, Arial, Helvetica, sans-serif" font-weight="800" font-size="69.4" fill="#ffffff">7</text></g><g><rect x="802" y="420" width="88" height="124" rx="12" fill="url(#grad_club)"/><rect x="805" y="423" width="82" height="52" rx="9" fill="#ffffff" opacity="0.05"/><g transform="translate(810.48,441.48) scale(0.8600)"><g fill="#000000" opacity="0.30" filter="url(#soft)" transform="translate(2.4,3.0)"><circle cx="50" cy="32" r="18"/><circle cx="32" cy="56" r="18"/><circle cx="68" cy="56" r="18"/><path d="M50,52 C54,68 58,80 68,92 L32,92 C42,80 46,68 50,52 Z"/></g><g fill="#ffffff" opacity="0.13" filter="url(#soft)" transform="translate(-2.0,-2.6)"><circle cx="50" cy="32" r="18"/><circle cx="32" cy="56" r="18"/><circle cx="68" cy="56" r="18"/><path d="M50,52 C54,68 58,80 68,92 L32,92 C42,80 46,68 50,52 Z"/></g><g fill="#117622"><circle cx="50" cy="32" r="18"/><circle cx="32" cy="56" r="18"/><circle cx="68" cy="56" r="18"/><path d="M50,52 C54,68 58,80 68,92 L32,92 C42,80 46,68 50,52 Z"/></g></g><g transform="translate(807.14,428.24) scale(0.1700)"><g fill="#ffffff" opacity="0.85"><circle cx="50" cy="32" r="18"/><circle cx="32" cy="56" r="18"/><circle cx="68" cy="56" r="18"/><path d="M50,52 C54,68 58,80 68,92 L32,92 C42,80 46,68 50,52 Z"/></g></g><text x="844.0" y="512.0" text-anchor="middle" font-family="Arial Black, Arial, Helvetica, sans-serif" font-weight="800" font-size="69.4" fill="#000000" opacity="0.30">6</text><text x="842.5" y="510.0" text-anchor="middle" font-family="Arial Black, Arial, Helvetica, sans-serif" font-weight="800" font-size="69.4" fill="#ffffff">6</text></g><g><rect x="900" y="420" width="88" height="124" rx="12" fill="url(#grad_club)"/><rect x="903" y="423" width="82" height="52" rx="9" fill="#ffffff" opacity="0.05"/><g transform="translate(908.48,441.48) scale(0.8600)"><g fill="#000000" opacity="0.30" filter="url(#soft)" transform="translate(2.4,3.0)"><circle cx="50" cy="32" r="18"/><circle cx="32" cy="56" r="18"/><circle cx="68" cy="56" r="18"/><path d="M50,52 C54,68 58,80 68,92 L32,92 C42,80 46,68 50,52 Z"/></g><g fill="#ffffff" opacity="0.13" filter="url(#soft)" transform="translate(-2.0,-2.6)"><circle cx="50" cy="32" r="18"/><circle cx="32" cy="56" r="18"/><circle cx="68" cy="56" r="18"/><path d="M50,52 C54,68 58,80 68,92 L32,92 C42,80 46,68 50,52 Z"/></g><g fill="#117622"><circle cx="50" cy="32" r="18"/><circle cx="32" cy="56" r="18"/><circle cx="68" cy="56" r="18"/><path d="M50,52 C54,68 58,80 68,92 L32,92 C42,80 46,68 50,52 Z"/></g></g><g transform="translate(905.14,428.24) scale(0.1700)"><g fill="#ffffff" opacity="0.85"><circle cx="50" cy="32" r="18"/><circle cx="32" cy="56" r="18"/><circle cx="68" cy="56" r="18"/><path d="M50,52 C54,68 58,80 68,92 L32,92 C42,80 46,68 50,52 Z"/></g></g><text x="942.0" y="512.0" text-anchor="middle" font-family="Arial Black, Arial, Helvetica, sans-serif" font-weight="800" font-size="69.4" fill="#000000" opacity="0.30">5</text><text x="940.5" y="510.0" text-anchor="middle" font-family="Arial Black, Arial, Helvetica, sans-serif" font-weight="800" font-size="69.4" fill="#ffffff">5</text></g><g><rect x="998" y="420" width="88" height="124" rx="12" fill="url(#grad_club)"/><rect x="1001" y="423" width="82" height="52" rx="9" fill="#ffffff" opacity="0.05"/><g transform="translate(1006.48,441.48) scale(0.8600)"><g fill="#000000" opacity="0.30" filter="url(#soft)" transform="translate(2.4,3.0)"><circle cx="50" cy="32" r="18"/><circle cx="32" cy="56" r="18"/><circle cx="68" cy="56" r="18"/><path d="M50,52 C54,68 58,80 68,92 L32,92 C42,80 46,68 50,52 Z"/></g><g fill="#ffffff" opacity="0.13" filter="url(#soft)" transform="translate(-2.0,-2.6)"><circle cx="50" cy="32" r="18"/><circle cx="32" cy="56" r="18"/><circle cx="68" cy="56" r="18"/><path d="M50,52 C54,68 58,80 68,92 L32,92 C42,80 46,68 50,52 Z"/></g><g fill="#117622"><circle cx="50" cy="32" r="18"/><circle cx="32" cy="56" r="18"/><circle cx="68" cy="56" r="18"/><path d="M50,52 C54,68 58,80 68,92 L32,92 C42,80 46,68 50,52 Z"/></g></g><g transform="translate(1003.14,428.24) scale(0.1700)"><g fill="#ffffff" opacity="0.85"><circle cx="50" cy="32" r="18"/><circle cx="32" cy="56" r="18"/><circle cx="68" cy="56" r="18"/><path d="M50,52 C54,68 58,80 68,92 L32,92 C42,80 46,68 50,52 Z"/></g></g><text x="1040.0" y="512.0" text-anchor="middle" font-family="Arial Black, Arial, Helvetica, sans-serif" font-weight="800" font-size="69.4" fill="#000000" opacity="0.30">4</text><text x="1038.5" y="510.0" text-anchor="middle" font-family="Arial Black, Arial, Helvetica, sans-serif" font-weight="800" font-size="69.4" fill="#ffffff">4</text></g><g><rect x="1096" y="420" width="88" height="124" rx="12" fill="url(#grad_club)"/><rect x="1099" y="423" width="82" height="52" rx="9" fill="#ffffff" opacity="0.05"/><g transform="translate(1104.48,441.48) scale(0.8600)"><g fill="#000000" opacity="0.30" filter="url(#soft)" transform="translate(2.4,3.0)"><circle cx="50" cy="32" r="18"/><circle cx="32" cy="56" r="18"/><circle cx="68" cy="56" r="18"/><path d="M50,52 C54,68 58,80 68,92 L32,92 C42,80 46,68 50,52 Z"/></g><g fill="#ffffff" opacity="0.13" filter="url(#soft)" transform="translate(-2.0,-2.6)"><circle cx="50" cy="32" r="18"/><circle cx="32" cy="56" r="18"/><circle cx="68" cy="56" r="18"/><path d="M50,52 C54,68 58,80 68,92 L32,92 C42,80 46,68 50,52 Z"/></g><g fill="#117622"><circle cx="50" cy="32" r="18"/><circle cx="32" cy="56" r="18"/><circle cx="68" cy="56" r="18"/><path d="M50,52 C54,68 58,80 68,92 L32,92 C42,80 46,68 50,52 Z"/></g></g><g transform="translate(1101.14,428.24) scale(0.1700)"><g fill="#ffffff" opacity="0.85"><circle cx="50" cy="32" r="18"/><circle cx="32" cy="56" r="18"/><circle cx="68" cy="56" r="18"/><path d="M50,52 C54,68 58,80 68,92 L32,92 C42,80 46,68 50,52 Z"/></g></g><text x="1138.0" y="512.0" text-anchor="middle" font-family="Arial Black, Arial, Helvetica, sans-serif" font-weight="800" font-size="69.4" fill="#000000" opacity="0.30">3</text><text x="1136.5" y="510.0" text-anchor="middle" font-family="Arial Black, Arial, Helvetica, sans-serif" font-weight="800" font-size="69.4" fill="#ffffff">3</text></g><g><rect x="1194" y="420" width="88" height="124" rx="12" fill="url(#grad_club)"/><rect x="1197" y="423" width="82" height="52" rx="9" fill="#ffffff" opacity="0.05"/><g transform="translate(1202.48,441.48) scale(0.8600)"><g fill="#000000" opacity="0.30" filter="url(#soft)" transform="translate(2.4,3.0)"><circle cx="50" cy="32" r="18"/><circle cx="32" cy="56" r="18"/><circle cx="68" cy="56" r="18"/><path d="M50,52 C54,68 58,80 68,92 L32,92 C42,80 46,68 50,52 Z"/></g><g fill="#ffffff" opacity="0.13" filter="url(#soft)" transform="translate(-2.0,-2.6)"><circle cx="50" cy="32" r="18"/><circle cx="32" cy="56" r="18"/><circle cx="68" cy="56" r="18"/><path d="M50,52 C54,68 58,80 68,92 L32,92 C42,80 46,68 50,52 Z"/></g><g fill="#117622"><circle cx="50" cy="32" r="18"/><circle cx="32" cy="56" r="18"/><circle cx="68" cy="56" r="18"/><path d="M50,52 C54,68 58,80 68,92 L32,92 C42,80 46,68 50,52 Z"/></g></g><g transform="translate(1199.14,428.24) scale(0.1700)"><g fill="#ffffff" opacity="0.85"><circle cx="50" cy="32" r="18"/><circle cx="32" cy="56" r="18"/><circle cx="68" cy="56" r="18"/><path d="M50,52 C54,68 58,80 68,92 L32,92 C42,80 46,68 50,52 Z"/></g></g><text x="1236.0" y="512.0" text-anchor="middle" font-family="Arial Black, Arial, Helvetica, sans-serif" font-weight="800" font-size="69.4" fill="#000000" opacity="0.30">2</text><text x="1234.5" y="510.0" text-anchor="middle" font-family="Arial Black, Arial, Helvetica, sans-serif" font-weight="800" font-size="69.4" fill="#ffffff">2</text></g></svg>