<svg viewBox="0 0 100 100" xmlns="http://www.w3.org/2000/svg">
  <title>Poker Trainer</title>
  <circle cx="50" cy="50" r="42.5" fill="#0c1e3a"/>
  <g transform="translate(50 50)">
    <rect x="-6.5" y="-43.5" width="13" height="9" rx="1" fill="#2563eb"/>
    <g transform="rotate(45)"><rect x="-6.5" y="-43.5" width="13" height="9" rx="1" fill="#2563eb"/></g>
    <g transform="rotate(90)"><rect x="-6.5" y="-43.5" width="13" height="9" rx="1" fill="#2563eb"/></g>
    <g transform="rotate(135)"><rect x="-6.5" y="-43.5" width="13" height="9" rx="1" fill="#2563eb"/></g>
    <g transform="rotate(180)"><rect x="-6.5" y="-43.5" width="13" height="9" rx="1" fill="#2563eb"/></g>
    <g transform="rotate(225)"><rect x="-6.5" y="-43.5" width="13" height="9" rx="1" fill="#2563eb"/></g>
    <g transform="rotate(270)"><rect x="-6.5" y="-43.5" width="13" height="9" rx="1" fill="#2563eb"/></g>
    <g transform="rotate(315)"><rect x="-6.5" y="-43.5" width="13" height="9" rx="1" fill="#2563eb"/></g>
  </g>
  <circle cx="50" cy="50" r="34" fill="#0c1e3a"/>
  <circle cx="50" cy="50" r="30.5" fill="#1e3a8a"/>
  <circle cx="50" cy="50" r="30.5" fill="none" stroke="#3b82f6" stroke-width="0.5" opacity="0.7"/>
  <path d="M 50 36 C 57.6 42.7 63.2 50 60.6 57 C 59.1 60.8 54.7 62 52 59 L 53.2 65.2 L 46.8 65.2 L 48 59 C 45.3 62 40.9 60.8 39.4 57 C 36.8 50 42.4 42.7 50 36 Z" fill="#f8fafc"/>
</svg>
